<?xml version="1.0" encoding="UTF-8" standalone="no"?>
<!DOCTYPE svg PUBLIC "-//W3C//DTD SVG 1.1//EN"
 "http://www.w3.org/Graphics/SVG/1.1/DTD/svg11.dtd">
<!-- Generated by graphviz version 14.1.5 (20260411.2331)
 -->
<!-- Title: MainWindow::buildCalibrationPage Pages: 1 -->
<svg width="373pt" height="204pt"
 viewBox="0.00 0.00 373.00 204.00" xmlns="http://www.w3.org/2000/svg" xmlns:xlink="http://www.w3.org/1999/xlink">
<g id="graph0" class="graph" transform="scale(1 1) rotate(0) translate(4 200)">
<title>MainWindow::buildCalibrationPage</title>
<!-- Node1 -->
<g id="Node000001" class="node">
<title>Node1</title>
<g id="a_Node000001"><a xlink:title="Construye la pagina de Calibracion.">
<polygon fill="#999999" stroke="#666666" points="167.5,-102 0,-102 0,-82 167.5,-82 167.5,-102"/>
<text xml:space="preserve" text-anchor="middle" x="83.75" y="-88.5" font-family="Helvetica,sans-Serif" font-size="10.00">MainWindow::buildCalibrationPage</text>
</a>
</g>
</g>
<!-- Node2 -->
<g id="Node000002" class="node">
<title>Node2</title>
<g id="a_Node000002"><a xlink:href="class_main_window.html#a9081339f72d997b6afd3485169c8a5b2" target="_top" xlink:title="Envia los angulos de servo configurados al MCU.">
<polygon fill="white" stroke="#666666" points="353.75,-196 214.75,-196 214.75,-164 353.75,-164 353.75,-196"/>
<text xml:space="preserve" text-anchor="start" x="222.75" y="-182.5" font-family="Helvetica,sans-Serif" font-size="10.00">MainWindow::onApplyServo</text>
<text xml:space="preserve" text-anchor="middle" x="284.25" y="-170.5" font-family="Helvetica,sans-Serif" font-size="10.00">Angle</text>
</a>
</g>
</g>
<!-- Node1&#45;&gt;Node2 -->
<g id="edge1_Node000001_Node000002" class="edge">
<title>Node1&#45;&gt;Node2</title>
<g id="a_edge1_Node000001_Node000002"><a xlink:title=" ">
<path fill="none" stroke="#63b8ff" d="M101.96,-102.43C124.64,-115.87 166.03,-139.34 203.5,-155 207.34,-156.6 211.32,-158.16 215.36,-159.67"/>
<polygon fill="#63b8ff" stroke="#63b8ff" points="214.13,-162.94 224.73,-163 216.48,-156.35 214.13,-162.94"/>
</a>
</g>
</g>
<!-- Node3 -->
<g id="Node000003" class="node">
<title>Node3</title>
<g id="a_Node000003"><a xlink:href="class_main_window.html#ac072a152cfe7652ccad3270ca10dd3c3" target="_top" xlink:title="Envia los umbrales de distancia configurados al MCU.">
<polygon fill="white" stroke="#666666" points="365,-146 203.5,-146 203.5,-126 365,-126 365,-146"/>
<text xml:space="preserve" text-anchor="middle" x="284.25" y="-132.5" font-family="Helvetica,sans-Serif" font-size="10.00">MainWindow::onApplyThresholds</text>
</a>
</g>
</g>
<!-- Node1&#45;&gt;Node3 -->
<g id="edge2_Node000001_Node000003" class="edge">
<title>Node1&#45;&gt;Node3</title>
<g id="a_edge2_Node000001_Node000003"><a xlink:title=" ">
<path fill="none" stroke="#63b8ff" d="M132.04,-102.48C159.9,-108.66 195.37,-116.52 224.95,-123.08"/>
<polygon fill="#63b8ff" stroke="#63b8ff" points="223.98,-126.45 234.5,-125.19 225.49,-119.61 223.98,-126.45"/>
</a>
</g>
</g>
<!-- Node4 -->
<g id="Node000004" class="node">
<title>Node4</title>
<g id="a_Node000004"><a xlink:href="class_main_window.html#a25bb2e84541c2329e9f6db2bbbfe6f45" target="_top" xlink:title="Resetea los tiempos de arribo a los valores por defecto (2s/4s/6s).">
<polygon fill="white" stroke="#666666" points="357.5,-108 211,-108 211,-76 357.5,-76 357.5,-108"/>
<text xml:space="preserve" text-anchor="start" x="219" y="-94.5" font-family="Helvetica,sans-Serif" font-size="10.00">MainWindow::onResetDefault</text>
<text xml:space="preserve" text-anchor="middle" x="284.25" y="-82.5" font-family="Helvetica,sans-Serif" font-size="10.00">Times</text>
</a>
</g>
</g>
<!-- Node1&#45;&gt;Node4 -->
<g id="edge3_Node000001_Node000004" class="edge">
<title>Node1&#45;&gt;Node4</title>
<g id="a_edge3_Node000001_Node000004"><a xlink:title=" ">
<path fill="none" stroke="#63b8ff" d="M167.78,-92C178.24,-92 188.94,-92 199.4,-92"/>
<polygon fill="#63b8ff" stroke="#63b8ff" points="199.13,-95.5 209.13,-92 199.13,-88.5 199.13,-95.5"/>
</a>
</g>
</g>
<!-- Node5 -->
<g id="Node000005" class="node">
<title>Node5</title>
<g id="a_Node000005"><a xlink:href="class_main_window.html#a6d442443dc1a8b4939ecec8cd5dce904" target="_top" xlink:title="Inicia o detiene el modo calibracion en el MCU.">
<polygon fill="white" stroke="#666666" points="362.38,-58 206.12,-58 206.12,-38 362.38,-38 362.38,-58"/>
<text xml:space="preserve" text-anchor="middle" x="284.25" y="-44.5" font-family="Helvetica,sans-Serif" font-size="10.00">MainWindow::onStartCalibration</text>
</a>
</g>
</g>
<!-- Node1&#45;&gt;Node5 -->
<g id="edge4_Node000001_Node000005" class="edge">
<title>Node1&#45;&gt;Node5</title>
<g id="a_edge4_Node000001_Node000005"><a xlink:title=" ">
<path fill="none" stroke="#63b8ff" d="M132.04,-81.52C159.9,-75.34 195.37,-67.48 224.95,-60.92"/>
<polygon fill="#63b8ff" stroke="#63b8ff" points="225.49,-64.39 234.5,-58.81 223.98,-57.55 225.49,-64.39"/>
</a>
</g>
</g>
<!-- Node6 -->
<g id="Node000006" class="node">
<title>Node6</title>
<g id="a_Node000006"><a xlink:href="class_main_window.html#a6a6851ed81ac01eb23c642c836e63578" target="_top" xlink:title="Dispara un servo manualmente para test.">
<polygon fill="white" stroke="#666666" points="350.75,-20 217.75,-20 217.75,0 350.75,0 350.75,-20"/>
<text xml:space="preserve" text-anchor="middle" x="284.25" y="-6.5" font-family="Helvetica,sans-Serif" font-size="10.00">MainWindow::onTestServo</text>
</a>
</g>
</g>
<!-- Node1&#45;&gt;Node6 -->
<g id="edge5_Node000001_Node000006" class="edge">
<title>Node1&#45;&gt;Node6</title>
<g id="a_edge5_Node000001_Node000006"><a xlink:title=" ">
<path fill="none" stroke="#63b8ff" d="M101.03,-81.64C123.35,-67.84 165.07,-43.5 203.5,-29 208.77,-27.01 214.33,-25.18 219.94,-23.51"/>
<polygon fill="#63b8ff" stroke="#63b8ff" points="220.62,-26.96 229.31,-20.9 218.74,-20.21 220.62,-26.96"/>
</a>
</g>
</g>
</g>
</svg>
