<?xml version="1.0" encoding="UTF-8" standalone="no"?>
<!DOCTYPE svg PUBLIC "-//W3C//DTD SVG 1.1//EN"
 "http://www.w3.org/Graphics/SVG/1.1/DTD/svg11.dtd">
<!-- Generated by graphviz version 14.1.5 (20260411.2331)
 -->
<!-- Title: MainWindow::onStop Pages: 1 -->
<svg width="648pt" height="28pt"
 viewBox="0.00 0.00 648.00 28.00" xmlns="http://www.w3.org/2000/svg" xmlns:xlink="http://www.w3.org/1999/xlink">
<g id="graph0" class="graph" transform="scale(1 1) rotate(0) translate(4 24)">
<title>MainWindow::onStop</title>
<!-- Node1 -->
<g id="Node000001" class="node">
<title>Node1</title>
<g id="a_Node000001"><a xlink:title="Detiene la clasificacion: envia CMD_STOP al MCU.">
<polygon fill="#999999" stroke="#666666" points="640,-20 531,-20 531,0 640,0 640,-20"/>
<text xml:space="preserve" text-anchor="middle" x="585.5" y="-6.5" font-family="Helvetica,sans-Serif" font-size="10.00">MainWindow::onStop</text>
</a>
</g>
</g>
<!-- Node2 -->
<g id="Node000002" class="node">
<title>Node2</title>
<g id="a_Node000002"><a xlink:href="class_main_window.html#abf4c329af69c176000bf54106dfab198" target="_top" xlink:title="Construye la pagina de Clasificacion.">
<polygon fill="white" stroke="#666666" points="495,-20 314.75,-20 314.75,0 495,0 495,-20"/>
<text xml:space="preserve" text-anchor="middle" x="404.88" y="-6.5" font-family="Helvetica,sans-Serif" font-size="10.00">MainWindow::buildClassificationPage</text>
</a>
</g>
</g>
<!-- Node1&#45;&gt;Node2 -->
<g id="edge1_Node000001_Node000002" class="edge">
<title>Node1&#45;&gt;Node2</title>
<g id="a_edge1_Node000001_Node000002"><a xlink:title=" ">
<path fill="none" stroke="#63b8ff" d="M519.52,-10C511.58,-10 503.38,-10 495.17,-10"/>
<polygon fill="#63b8ff" stroke="#63b8ff" points="519.39,-13.5 529.39,-10 519.39,-6.5 519.39,-13.5"/>
</a>
</g>
</g>
<!-- Node3 -->
<g id="Node000003" class="node">
<title>Node3</title>
<g id="a_Node000003"><a xlink:href="class_main_window.html#afe1bceaad866b6fed583ba83245ae195" target="_top" xlink:title="Construye todos los widgets de la interfaz.">
<polygon fill="white" stroke="#666666" points="278.75,-20 170.5,-20 170.5,0 278.75,0 278.75,-20"/>
<text xml:space="preserve" text-anchor="middle" x="224.62" y="-6.5" font-family="Helvetica,sans-Serif" font-size="10.00">MainWindow::buildUi</text>
</a>
</g>
</g>
<!-- Node2&#45;&gt;Node3 -->
<g id="edge2_Node000002_Node000003" class="edge">
<title>Node2&#45;&gt;Node3</title>
<g id="a_edge2_Node000002_Node000003"><a xlink:title=" ">
<path fill="none" stroke="#63b8ff" d="M303.12,-10C294.82,-10 286.66,-10 278.93,-10"/>
<polygon fill="#63b8ff" stroke="#63b8ff" points="302.98,-13.5 312.98,-10 302.98,-6.5 302.98,-13.5"/>
</a>
</g>
</g>
<!-- Node4 -->
<g id="Node000004" class="node">
<title>Node4</title>
<g id="a_Node000004"><a xlink:href="class_main_window.html#a996c5a2b6f77944776856f08ec30858d" target="_top" xlink:title="Constructor. Construye la UI, aplica estilos y conecta senales.">
<polygon fill="white" stroke="#666666" points="134.5,-20 0,-20 0,0 134.5,0 134.5,-20"/>
<text xml:space="preserve" text-anchor="middle" x="67.25" y="-6.5" font-family="Helvetica,sans-Serif" font-size="10.00">MainWindow::MainWindow</text>
</a>
</g>
</g>
<!-- Node3&#45;&gt;Node4 -->
<g id="edge3_Node000003_Node000004" class="edge">
<title>Node3&#45;&gt;Node4</title>
<g id="a_edge3_Node000003_Node000004"><a xlink:title=" ">
<path fill="none" stroke="#63b8ff" d="M158.8,-10C150.93,-10 142.89,-10 135,-10"/>
<polygon fill="#63b8ff" stroke="#63b8ff" points="158.64,-13.5 168.64,-10 158.64,-6.5 158.64,-13.5"/>
</a>
</g>
</g>
</g>
</svg>
