<?xml version="1.0" encoding="UTF-8" standalone="no"?>
<!DOCTYPE svg PUBLIC "-//W3C//DTD SVG 1.1//EN"
 "http://www.w3.org/Graphics/SVG/1.1/DTD/svg11.dtd">
<!-- Generated by graphviz version 14.1.5 (20260411.2331)
 -->
<!-- Title: MainWindow::onRefreshPorts Pages: 1 -->
<svg width="635pt" height="47pt"
 viewBox="0.00 0.00 635.00 47.00" xmlns="http://www.w3.org/2000/svg" xmlns:xlink="http://www.w3.org/1999/xlink">
<g id="graph0" class="graph" transform="scale(1 1) rotate(0) translate(4 43)">
<title>MainWindow::onRefreshPorts</title>
<!-- Node1 -->
<g id="Node000001" class="node">
<title>Node1</title>
<g id="a_Node000001"><a xlink:title="Refresca la lista de puertos serie disponibles.">
<polygon fill="#999999" stroke="#666666" points="627.25,-20 480.75,-20 480.75,0 627.25,0 627.25,-20"/>
<text xml:space="preserve" text-anchor="middle" x="554" y="-6.5" font-family="Helvetica,sans-Serif" font-size="10.00">MainWindow::onRefreshPorts</text>
</a>
</g>
</g>
<!-- Node2 -->
<g id="Node000002" class="node">
<title>Node2</title>
<g id="a_Node000002"><a xlink:href="class_main_window.html#acd664ecee4d4b04d7caeef52b628efff" target="_top" xlink:title="Construye la barra de herramientas superior.">
<polygon fill="white" stroke="#666666" points="444.75,-39 314.75,-39 314.75,-19 444.75,-19 444.75,-39"/>
<text xml:space="preserve" text-anchor="middle" x="379.75" y="-25.5" font-family="Helvetica,sans-Serif" font-size="10.00">MainWindow::buildToolbar</text>
</a>
</g>
</g>
<!-- Node1&#45;&gt;Node2 -->
<g id="edge1_Node000001_Node000002" class="edge">
<title>Node1&#45;&gt;Node2</title>
<g id="a_edge1_Node000001_Node000002"><a xlink:title=" ">
<path fill="none" stroke="#63b8ff" d="M469.06,-19.26C460.98,-20.15 452.86,-21.05 445.01,-21.91"/>
<polygon fill="#63b8ff" stroke="#63b8ff" points="469.39,-22.74 478.95,-18.17 468.62,-15.79 469.39,-22.74"/>
</a>
</g>
</g>
<!-- Node4 -->
<g id="Node000004" class="node">
<title>Node4</title>
<g id="a_Node000004"><a xlink:href="class_main_window.html#a996c5a2b6f77944776856f08ec30858d" target="_top" xlink:title="Constructor. Construye la UI, aplica estilos y conecta senales.">
<polygon fill="white" stroke="#666666" points="134.5,-20 0,-20 0,0 134.5,0 134.5,-20"/>
<text xml:space="preserve" text-anchor="middle" x="67.25" y="-6.5" font-family="Helvetica,sans-Serif" font-size="10.00">MainWindow::MainWindow</text>
</a>
</g>
</g>
<!-- Node1&#45;&gt;Node4 -->
<g id="edge4_Node000001_Node000004" class="edge">
<title>Node1&#45;&gt;Node4</title>
<g id="a_edge4_Node000001_Node000004"><a xlink:title=" ">
<path fill="none" stroke="#63b8ff" d="M469.15,-10C374.28,-10 221.69,-10 134.68,-10"/>
<polygon fill="#63b8ff" stroke="#63b8ff" points="468.91,-13.5 478.91,-10 468.91,-6.5 468.91,-13.5"/>
</a>
</g>
</g>
<!-- Node3 -->
<g id="Node000003" class="node">
<title>Node3</title>
<g id="a_Node000003"><a xlink:href="class_main_window.html#afe1bceaad866b6fed583ba83245ae195" target="_top" xlink:title="Construye todos los widgets de la interfaz.">
<polygon fill="white" stroke="#666666" points="278.75,-39 170.5,-39 170.5,-19 278.75,-19 278.75,-39"/>
<text xml:space="preserve" text-anchor="middle" x="224.62" y="-25.5" font-family="Helvetica,sans-Serif" font-size="10.00">MainWindow::buildUi</text>
</a>
</g>
</g>
<!-- Node2&#45;&gt;Node3 -->
<g id="edge2_Node000002_Node000003" class="edge">
<title>Node2&#45;&gt;Node3</title>
<g id="a_edge2_Node000002_Node000003"><a xlink:title=" ">
<path fill="none" stroke="#63b8ff" d="M302.86,-29C294.77,-29 286.67,-29 278.93,-29"/>
<polygon fill="#63b8ff" stroke="#63b8ff" points="302.74,-32.5 312.74,-29 302.74,-25.5 302.74,-32.5"/>
</a>
</g>
</g>
<!-- Node3&#45;&gt;Node4 -->
<g id="edge3_Node000003_Node000004" class="edge">
<title>Node3&#45;&gt;Node4</title>
<g id="a_edge3_Node000003_Node000004"><a xlink:title=" ">
<path fill="none" stroke="#63b8ff" d="M158.8,-21.07C150.93,-20.11 142.89,-19.13 135,-18.16"/>
<polygon fill="#63b8ff" stroke="#63b8ff" points="158.3,-24.54 168.65,-22.28 159.15,-17.59 158.3,-24.54"/>
</a>
</g>
</g>
</g>
</svg>
