<?xml version="1.0" encoding="UTF-8" standalone="no"?>
<!DOCTYPE svg PUBLIC "-//W3C//DTD SVG 1.1//EN"
 "http://www.w3.org/Graphics/SVG/1.1/DTD/svg11.dtd">
<!-- Generated by graphviz version 14.1.5 (20260411.2331)
 -->
<!-- Title: SerialManager::disconnected Pages: 1 -->
<svg width="524pt" height="66pt"
 viewBox="0.00 0.00 524.00 66.00" xmlns="http://www.w3.org/2000/svg" xmlns:xlink="http://www.w3.org/1999/xlink">
<g id="graph0" class="graph" transform="scale(1 1) rotate(0) translate(4 62)">
<title>SerialManager::disconnected</title>
<!-- Node1 -->
<g id="Node000001" class="node">
<title>Node1</title>
<g id="a_Node000001"><a xlink:title="Emitida al desconectar del puerto serie.">
<polygon fill="#999999" stroke="#666666" points="516,-39 374,-39 374,-19 516,-19 516,-39"/>
<text xml:space="preserve" text-anchor="middle" x="445" y="-25.5" font-family="Helvetica,sans-Serif" font-size="10.00">SerialManager::disconnected</text>
</a>
</g>
</g>
<!-- Node2 -->
<g id="Node000002" class="node">
<title>Node2</title>
<g id="a_Node000002"><a xlink:href="class_serial_manager.html#a0f94a12c023b54a672e0e99442e5f89c" target="_top" xlink:title="Cierra el puerto serie y detiene el heartbeat.">
<polygon fill="white" stroke="#666666" points="338,-58 188.5,-58 188.5,-38 338,-38 338,-58"/>
<text xml:space="preserve" text-anchor="middle" x="263.25" y="-44.5" font-family="Helvetica,sans-Serif" font-size="10.00">SerialManager::disconnectPort</text>
</a>
</g>
</g>
<!-- Node1&#45;&gt;Node2 -->
<g id="edge1_Node000001_Node000002" class="edge">
<title>Node1&#45;&gt;Node2</title>
<g id="a_edge1_Node000001_Node000002"><a xlink:title=" ">
<path fill="none" stroke="#63b8ff" d="M362.45,-37.62C354.41,-38.47 346.28,-39.33 338.32,-40.17"/>
<polygon fill="#63b8ff" stroke="#63b8ff" points="362.65,-41.12 372.23,-36.59 361.91,-34.16 362.65,-41.12"/>
</a>
</g>
</g>
<!-- Node4 -->
<g id="Node000004" class="node">
<title>Node4</title>
<g id="a_Node000004"><a xlink:href="class_main_window.html#a996c5a2b6f77944776856f08ec30858d" target="_top" xlink:title="Constructor. Construye la UI, aplica estilos y conecta senales.">
<polygon fill="white" stroke="#666666" points="330.5,-20 196,-20 196,0 330.5,0 330.5,-20"/>
<text xml:space="preserve" text-anchor="middle" x="263.25" y="-6.5" font-family="Helvetica,sans-Serif" font-size="10.00">MainWindow::MainWindow</text>
</a>
</g>
</g>
<!-- Node1&#45;&gt;Node4 -->
<g id="edge3_Node000001_Node000004" class="edge">
<title>Node1&#45;&gt;Node4</title>
<g id="a_edge3_Node000001_Node000004"><a xlink:title=" ">
<path fill="none" stroke="#63b8ff" d="M362.4,-20.37C351.87,-19.26 341.19,-18.13 330.94,-17.05"/>
<polygon fill="#63b8ff" stroke="#63b8ff" points="361.91,-23.84 372.23,-21.41 362.65,-16.88 361.91,-23.84"/>
</a>
</g>
</g>
<!-- Node3 -->
<g id="Node000003" class="node">
<title>Node3</title>
<g id="a_Node000003"><a xlink:href="class_serial_manager.html#a8d8fdd485791ee860709268140ea56c1" target="_top" xlink:title="Destructor. Cierra el puerto si esta abierto.">
<polygon fill="white" stroke="#666666" points="152.5,-58 0,-58 0,-38 152.5,-38 152.5,-58"/>
<text xml:space="preserve" text-anchor="middle" x="76.25" y="-44.5" font-family="Helvetica,sans-Serif" font-size="10.00">SerialManager::~SerialManager</text>
</a>
</g>
</g>
<!-- Node2&#45;&gt;Node3 -->
<g id="edge2_Node000002_Node000003" class="edge">
<title>Node2&#45;&gt;Node3</title>
<g id="a_edge2_Node000002_Node000003"><a xlink:title=" ">
<path fill="none" stroke="#63b8ff" d="M176.59,-48C168.7,-48 160.75,-48 152.96,-48"/>
<polygon fill="#63b8ff" stroke="#63b8ff" points="176.56,-51.5 186.56,-48 176.56,-44.5 176.56,-51.5"/>
</a>
</g>
</g>
</g>
</svg>
