<?xml version="1.0" encoding="UTF-8" standalone="no"?>
<!DOCTYPE svg PUBLIC "-//W3C//DTD SVG 1.1//EN"
 "http://www.w3.org/Graphics/SVG/1.1/DTD/svg11.dtd">
<!-- Generated by graphviz version 14.1.5 (20260411.2331)
 -->
<!-- Title: SerialManager::connected Pages: 1 -->
<svg width="310pt" height="66pt"
 viewBox="0.00 0.00 310.00 66.00" xmlns="http://www.w3.org/2000/svg" xmlns:xlink="http://www.w3.org/1999/xlink">
<g id="graph0" class="graph" transform="scale(1 1) rotate(0) translate(4 62)">
<title>SerialManager::connected</title>
<!-- Node1 -->
<g id="Node000001" class="node">
<title>Node1</title>
<g id="a_Node000001"><a xlink:title="Emitida al conectar exitosamente al puerto serie.">
<polygon fill="#999999" stroke="#666666" points="302,-39 172.75,-39 172.75,-19 302,-19 302,-39"/>
<text xml:space="preserve" text-anchor="middle" x="237.38" y="-25.5" font-family="Helvetica,sans-Serif" font-size="10.00">SerialManager::connected</text>
</a>
</g>
</g>
<!-- Node2 -->
<g id="Node000002" class="node">
<title>Node2</title>
<g id="a_Node000002"><a xlink:href="class_serial_manager.html#a0a9b4036f9b600ba62ee50e43320deff" target="_top" xlink:title="Abre el puerto serie especificado a 115200 baud, 8N1.">
<polygon fill="white" stroke="#666666" points="136.75,-58 0,-58 0,-38 136.75,-38 136.75,-58"/>
<text xml:space="preserve" text-anchor="middle" x="68.38" y="-44.5" font-family="Helvetica,sans-Serif" font-size="10.00">SerialManager::connectPort</text>
</a>
</g>
</g>
<!-- Node1&#45;&gt;Node2 -->
<g id="edge1_Node000001_Node000002" class="edge">
<title>Node1&#45;&gt;Node2</title>
<g id="a_edge1_Node000001_Node000002"><a xlink:title=" ">
<path fill="none" stroke="#63b8ff" d="M161.11,-37.56C153.13,-38.47 145.06,-39.39 137.17,-40.29"/>
<polygon fill="#63b8ff" stroke="#63b8ff" points="161.24,-41.07 170.78,-36.46 160.45,-34.12 161.24,-41.07"/>
</a>
</g>
</g>
<!-- Node3 -->
<g id="Node000003" class="node">
<title>Node3</title>
<g id="a_Node000003"><a xlink:href="class_main_window.html#a996c5a2b6f77944776856f08ec30858d" target="_top" xlink:title="Constructor. Construye la UI, aplica estilos y conecta senales.">
<polygon fill="white" stroke="#666666" points="135.62,-20 1.12,-20 1.12,0 135.62,0 135.62,-20"/>
<text xml:space="preserve" text-anchor="middle" x="68.38" y="-6.5" font-family="Helvetica,sans-Serif" font-size="10.00">MainWindow::MainWindow</text>
</a>
</g>
</g>
<!-- Node1&#45;&gt;Node3 -->
<g id="edge2_Node000001_Node000003" class="edge">
<title>Node1&#45;&gt;Node3</title>
<g id="a_edge2_Node000001_Node000003"><a xlink:title=" ">
<path fill="none" stroke="#63b8ff" d="M161.03,-20.43C152.7,-19.48 144.27,-18.52 136.06,-17.59"/>
<polygon fill="#63b8ff" stroke="#63b8ff" points="160.45,-23.88 170.78,-21.54 161.24,-16.93 160.45,-23.88"/>
</a>
</g>
</g>
</g>
</svg>
