<?xml version="1.0" encoding="UTF-8" standalone="no"?>
<!DOCTYPE svg PUBLIC "-//W3C//DTD SVG 1.1//EN"
 "http://www.w3.org/Graphics/SVG/1.1/DTD/svg11.dtd">
<!-- Generated by graphviz version 14.1.5 (20260411.2331)
 -->
<!-- Title: SerialManager::connectPort Pages: 1 -->
<svg width="312pt" height="78pt"
 viewBox="0.00 0.00 312.00 78.00" xmlns="http://www.w3.org/2000/svg" xmlns:xlink="http://www.w3.org/1999/xlink">
<g id="graph0" class="graph" transform="scale(1 1) rotate(0) translate(4 74)">
<title>SerialManager::connectPort</title>
<!-- Node1 -->
<g id="Node000001" class="node">
<title>Node1</title>
<g id="a_Node000001"><a xlink:title="Abre el puerto serie especificado a 115200 baud, 8N1.">
<polygon fill="#999999" stroke="#666666" points="136.75,-48 0,-48 0,-28 136.75,-28 136.75,-48"/>
<text xml:space="preserve" text-anchor="middle" x="68.38" y="-34.5" font-family="Helvetica,sans-Serif" font-size="10.00">SerialManager::connectPort</text>
</a>
</g>
</g>
<!-- Node2 -->
<g id="Node000002" class="node">
<title>Node2</title>
<g id="a_Node000002"><a xlink:href="class_serial_manager.html#a6800394366d8b7b2b3daeda81caaf1b7" target="_top" xlink:title="Emitida al conectar exitosamente al puerto serie.">
<polygon fill="white" stroke="#666666" points="303.12,-70 173.88,-70 173.88,-50 303.12,-50 303.12,-70"/>
<text xml:space="preserve" text-anchor="middle" x="238.5" y="-56.5" font-family="Helvetica,sans-Serif" font-size="10.00">SerialManager::connected</text>
</a>
</g>
</g>
<!-- Node1&#45;&gt;Node2 -->
<g id="edge1_Node000001_Node000002" class="edge">
<title>Node1&#45;&gt;Node2</title>
<g id="a_edge1_Node000001_Node000002"><a xlink:title=" ">
<path fill="none" stroke="#63b8ff" d="M136.79,-46.82C145.24,-47.93 153.92,-49.06 162.47,-50.18"/>
<polygon fill="#63b8ff" stroke="#63b8ff" points="161.75,-53.62 172.12,-51.44 162.66,-46.68 161.75,-53.62"/>
</a>
</g>
</g>
<!-- Node3 -->
<g id="Node000003" class="node">
<title>Node3</title>
<g id="a_Node000003"><a xlink:href="class_serial_manager.html#aba3a12f136892744725b45a0f2d33f96" target="_top" xlink:title="Emitida cuando ocurre un error al abrir el puerto.">
<polygon fill="white" stroke="#666666" points="304.25,-32 172.75,-32 172.75,0 304.25,0 304.25,-32"/>
<text xml:space="preserve" text-anchor="start" x="180.75" y="-18.5" font-family="Helvetica,sans-Serif" font-size="10.00">SerialManager::connection</text>
<text xml:space="preserve" text-anchor="middle" x="238.5" y="-6.5" font-family="Helvetica,sans-Serif" font-size="10.00">Error</text>
</a>
</g>
</g>
<!-- Node1&#45;&gt;Node3 -->
<g id="edge2_Node000001_Node000003" class="edge">
<title>Node1&#45;&gt;Node3</title>
<g id="a_edge2_Node000001_Node000003"><a xlink:title=" ">
<path fill="none" stroke="#63b8ff" d="M136.79,-29.18C144.74,-28.14 152.89,-27.07 160.95,-26.02"/>
<polygon fill="#63b8ff" stroke="#63b8ff" points="161.3,-29.5 170.76,-24.73 160.39,-22.56 161.3,-29.5"/>
</a>
</g>
</g>
</g>
</svg>
