<?xml version="1.0" encoding="UTF-8" standalone="no"?>
<!DOCTYPE svg PUBLIC "-//W3C//DTD SVG 1.1//EN"
 "http://www.w3.org/Graphics/SVG/1.1/DTD/svg11.dtd">
<!-- Generated by graphviz version 14.1.5 (20260411.2331)
 -->
<!-- Title: MainWindow::onApplyServoAngle Pages: 1 -->
<svg width="665pt" height="40pt"
 viewBox="0.00 0.00 665.00 40.00" xmlns="http://www.w3.org/2000/svg" xmlns:xlink="http://www.w3.org/1999/xlink">
<g id="graph0" class="graph" transform="scale(1 1) rotate(0) translate(4 36)">
<title>MainWindow::onApplyServoAngle</title>
<!-- Node1 -->
<g id="Node000001" class="node">
<title>Node1</title>
<g id="a_Node000001"><a xlink:title="Envia los angulos de servo configurados al MCU.">
<polygon fill="#999999" stroke="#666666" points="657.25,-32 518.25,-32 518.25,0 657.25,0 657.25,-32"/>
<text xml:space="preserve" text-anchor="start" x="526.25" y="-18.5" font-family="Helvetica,sans-Serif" font-size="10.00">MainWindow::onApplyServo</text>
<text xml:space="preserve" text-anchor="middle" x="587.75" y="-6.5" font-family="Helvetica,sans-Serif" font-size="10.00">Angle</text>
</a>
</g>
</g>
<!-- Node2 -->
<g id="Node000002" class="node">
<title>Node2</title>
<g id="a_Node000002"><a xlink:href="class_main_window.html#a2ce2d016528e5a22bc5556c7ab9e58c2" target="_top" xlink:title="Construye la pagina de Calibracion.">
<polygon fill="white" stroke="#666666" points="482.25,-26 314.75,-26 314.75,-6 482.25,-6 482.25,-26"/>
<text xml:space="preserve" text-anchor="middle" x="398.5" y="-12.5" font-family="Helvetica,sans-Serif" font-size="10.00">MainWindow::buildCalibrationPage</text>
</a>
</g>
</g>
<!-- Node1&#45;&gt;Node2 -->
<g id="edge1_Node000001_Node000002" class="edge">
<title>Node1&#45;&gt;Node2</title>
<g id="a_edge1_Node000001_Node000002"><a xlink:title=" ">
<path fill="none" stroke="#63b8ff" d="M506.39,-16C498.5,-16 490.48,-16 482.57,-16"/>
<polygon fill="#63b8ff" stroke="#63b8ff" points="506.31,-19.5 516.31,-16 506.31,-12.5 506.31,-19.5"/>
</a>
</g>
</g>
<!-- Node3 -->
<g id="Node000003" class="node">
<title>Node3</title>
<g id="a_Node000003"><a xlink:href="class_main_window.html#afe1bceaad866b6fed583ba83245ae195" target="_top" xlink:title="Construye todos los widgets de la interfaz.">
<polygon fill="white" stroke="#666666" points="278.75,-26 170.5,-26 170.5,-6 278.75,-6 278.75,-26"/>
<text xml:space="preserve" text-anchor="middle" x="224.62" y="-12.5" font-family="Helvetica,sans-Serif" font-size="10.00">MainWindow::buildUi</text>
</a>
</g>
</g>
<!-- Node2&#45;&gt;Node3 -->
<g id="edge2_Node000002_Node000003" class="edge">
<title>Node2&#45;&gt;Node3</title>
<g id="a_edge2_Node000002_Node000003"><a xlink:title=" ">
<path fill="none" stroke="#63b8ff" d="M303.09,-16C294.88,-16 286.77,-16 279.06,-16"/>
<polygon fill="#63b8ff" stroke="#63b8ff" points="302.82,-19.5 312.82,-16 302.82,-12.5 302.82,-19.5"/>
</a>
</g>
</g>
<!-- Node4 -->
<g id="Node000004" class="node">
<title>Node4</title>
<g id="a_Node000004"><a xlink:href="class_main_window.html#a996c5a2b6f77944776856f08ec30858d" target="_top" xlink:title="Constructor. Construye la UI, aplica estilos y conecta senales.">
<polygon fill="white" stroke="#666666" points="134.5,-26 0,-26 0,-6 134.5,-6 134.5,-26"/>
<text xml:space="preserve" text-anchor="middle" x="67.25" y="-12.5" font-family="Helvetica,sans-Serif" font-size="10.00">MainWindow::MainWindow</text>
</a>
</g>
</g>
<!-- Node3&#45;&gt;Node4 -->
<g id="edge3_Node000003_Node000004" class="edge">
<title>Node3&#45;&gt;Node4</title>
<g id="a_edge3_Node000003_Node000004"><a xlink:title=" ">
<path fill="none" stroke="#63b8ff" d="M158.8,-16C150.93,-16 142.89,-16 135,-16"/>
<polygon fill="#63b8ff" stroke="#63b8ff" points="158.64,-19.5 168.64,-16 158.64,-12.5 158.64,-19.5"/>
</a>
</g>
</g>
</g>
</svg>
