<?xml version="1.0" encoding="UTF-8" standalone="no"?>
<!DOCTYPE svg PUBLIC "-//W3C//DTD SVG 1.1//EN"
 "http://www.w3.org/Graphics/SVG/1.1/DTD/svg11.dtd">
<!-- Generated by graphviz version 14.1.5 (20260411.2331)
 -->
<!-- Title: MainWindow::buildUi Pages: 1 -->
<svg width="530pt" height="444pt"
 viewBox="0.00 0.00 530.00 444.00" xmlns="http://www.w3.org/2000/svg" xmlns:xlink="http://www.w3.org/1999/xlink">
<g id="graph0" class="graph" transform="scale(1 1) rotate(0) translate(4 440)">
<title>MainWindow::buildUi</title>
<!-- Node1 -->
<g id="Node000001" class="node">
<title>Node1</title>
<g id="a_Node000001"><a xlink:title="Construye todos los widgets de la interfaz.">
<polygon fill="#999999" stroke="#666666" points="108.25,-96 0,-96 0,-76 108.25,-76 108.25,-96"/>
<text xml:space="preserve" text-anchor="middle" x="54.12" y="-82.5" font-family="Helvetica,sans-Serif" font-size="10.00">MainWindow::buildUi</text>
</a>
</g>
</g>
<!-- Node2 -->
<g id="Node000002" class="node">
<title>Node2</title>
<g id="a_Node000002"><a xlink:href="class_main_window.html#a2ce2d016528e5a22bc5556c7ab9e58c2" target="_top" xlink:title="Construye la pagina de Calibracion.">
<polygon fill="white" stroke="#666666" points="318.12,-320 150.62,-320 150.62,-300 318.12,-300 318.12,-320"/>
<text xml:space="preserve" text-anchor="middle" x="234.38" y="-306.5" font-family="Helvetica,sans-Serif" font-size="10.00">MainWindow::buildCalibrationPage</text>
</a>
</g>
</g>
<!-- Node1&#45;&gt;Node2 -->
<g id="edge1_Node000001_Node000002" class="edge">
<title>Node1&#45;&gt;Node2</title>
<g id="a_edge1_Node000001_Node000002"><a xlink:title=" ">
<path fill="none" stroke="#63b8ff" d="M63.25,-96.21C90.91,-130.97 181.76,-245.14 218.13,-290.84"/>
<polygon fill="#63b8ff" stroke="#63b8ff" points="215.3,-292.9 224.26,-298.55 220.77,-288.54 215.3,-292.9"/>
</a>
</g>
</g>
<!-- Node8 -->
<g id="Node000008" class="node">
<title>Node8</title>
<g id="a_Node000008"><a xlink:href="class_main_window.html#abf4c329af69c176000bf54106dfab198" target="_top" xlink:title="Construye la pagina de Clasificacion.">
<polygon fill="white" stroke="#666666" points="324.5,-134 144.25,-134 144.25,-114 324.5,-114 324.5,-134"/>
<text xml:space="preserve" text-anchor="middle" x="234.38" y="-120.5" font-family="Helvetica,sans-Serif" font-size="10.00">MainWindow::buildClassificationPage</text>
</a>
</g>
</g>
<!-- Node1&#45;&gt;Node8 -->
<g id="edge7_Node000001_Node000008" class="edge">
<title>Node1&#45;&gt;Node8</title>
<g id="a_edge7_Node000001_Node000008"><a xlink:title=" ">
<path fill="none" stroke="#63b8ff" d="M104.3,-96.48C125.64,-101.03 150.82,-106.4 173.25,-111.18"/>
<polygon fill="#63b8ff" stroke="#63b8ff" points="172.37,-114.57 182.88,-113.23 173.83,-107.73 172.37,-114.57"/>
</a>
</g>
</g>
<!-- Node13 -->
<g id="Node000013" class="node">
<title>Node13</title>
<g id="a_Node000013"><a xlink:href="class_main_window.html#a0531fa9a3d2a53bacd3923ea4d4cef5a" target="_top" xlink:title="Construye el panel lateral de navegacion.">
<polygon fill="white" stroke="#666666" points="300.12,-96 168.62,-96 168.62,-76 300.12,-76 300.12,-96"/>
<text xml:space="preserve" text-anchor="middle" x="234.38" y="-82.5" font-family="Helvetica,sans-Serif" font-size="10.00">MainWindow::buildSidebar</text>
</a>
</g>
</g>
<!-- Node1&#45;&gt;Node13 -->
<g id="edge12_Node000001_Node000013" class="edge">
<title>Node1&#45;&gt;Node13</title>
<g id="a_edge12_Node000001_Node000013"><a xlink:title=" ">
<path fill="none" stroke="#63b8ff" d="M108.61,-86C123.85,-86 140.77,-86 157.09,-86"/>
<polygon fill="#63b8ff" stroke="#63b8ff" points="156.76,-89.5 166.76,-86 156.76,-82.5 156.76,-89.5"/>
</a>
</g>
</g>
<!-- Node14 -->
<g id="Node000014" class="node">
<title>Node14</title>
<g id="a_Node000014"><a xlink:href="class_main_window.html#acf8c1e42d3406ce03b5a8f14ee0b6dd0" target="_top" xlink:title="Cambia la pagina visible en el area central.">
<polygon fill="white" stroke="#666666" points="498.38,-58 384.12,-58 384.12,-38 498.38,-38 498.38,-58"/>
<text xml:space="preserve" text-anchor="middle" x="441.25" y="-44.5" font-family="Helvetica,sans-Serif" font-size="10.00">MainWindow::setPage</text>
</a>
</g>
</g>
<!-- Node1&#45;&gt;Node14 -->
<g id="edge16_Node000001_Node000014" class="edge">
<title>Node1&#45;&gt;Node14</title>
<g id="a_edge16_Node000001_Node000014"><a xlink:title=" ">
<path fill="none" stroke="#63b8ff" d="M97.97,-75.54C112.57,-72.33 129.05,-69.1 144.25,-67 222.12,-56.26 312.38,-51.57 372.56,-49.54"/>
<polygon fill="#63b8ff" stroke="#63b8ff" points="372.41,-53.04 382.3,-49.23 372.19,-46.05 372.41,-53.04"/>
</a>
</g>
</g>
<!-- Node15 -->
<g id="Node000015" class="node">
<title>Node15</title>
<g id="a_Node000015"><a xlink:href="class_main_window.html#acd664ecee4d4b04d7caeef52b628efff" target="_top" xlink:title="Construye la barra de herramientas superior.">
<polygon fill="white" stroke="#666666" points="299.38,-20 169.38,-20 169.38,0 299.38,0 299.38,-20"/>
<text xml:space="preserve" text-anchor="middle" x="234.38" y="-6.5" font-family="Helvetica,sans-Serif" font-size="10.00">MainWindow::buildToolbar</text>
</a>
</g>
</g>
<!-- Node1&#45;&gt;Node15 -->
<g id="edge14_Node000001_Node000015" class="edge">
<title>Node1&#45;&gt;Node15</title>
<g id="a_edge14_Node000001_Node000015"><a xlink:title=" ">
<path fill="none" stroke="#63b8ff" d="M69.94,-75.7C87.13,-64.14 116.64,-45.53 144.25,-34 153.81,-30.01 164.22,-26.5 174.44,-23.49"/>
<polygon fill="#63b8ff" stroke="#63b8ff" points="175.27,-26.9 183.96,-20.83 173.38,-20.15 175.27,-26.9"/>
</a>
</g>
</g>
<!-- Node3 -->
<g id="Node000003" class="node">
<title>Node3</title>
<g id="a_Node000003"><a xlink:href="class_main_window.html#a9081339f72d997b6afd3485169c8a5b2" target="_top" xlink:title="Envia los angulos de servo configurados al MCU.">
<polygon fill="white" stroke="#666666" points="510.75,-436 371.75,-436 371.75,-404 510.75,-404 510.75,-436"/>
<text xml:space="preserve" text-anchor="start" x="379.75" y="-422.5" font-family="Helvetica,sans-Serif" font-size="10.00">MainWindow::onApplyServo</text>
<text xml:space="preserve" text-anchor="middle" x="441.25" y="-410.5" font-family="Helvetica,sans-Serif" font-size="10.00">Angle</text>
</a>
</g>
</g>
<!-- Node2&#45;&gt;Node3 -->
<g id="edge2_Node000002_Node000003" class="edge">
<title>Node2&#45;&gt;Node3</title>
<g id="a_edge2_Node000002_Node000003"><a xlink:title=" ">
<path fill="none" stroke="#63b8ff" d="M247.76,-320.26C269.4,-337.74 316.05,-373.51 360.5,-395 363.77,-396.58 367.15,-398.09 370.61,-399.52"/>
<polygon fill="#63b8ff" stroke="#63b8ff" points="369.13,-402.7 379.72,-403.07 371.67,-396.18 369.13,-402.7"/>
</a>
</g>
</g>
<!-- Node4 -->
<g id="Node000004" class="node">
<title>Node4</title>
<g id="a_Node000004"><a xlink:href="class_main_window.html#ac072a152cfe7652ccad3270ca10dd3c3" target="_top" xlink:title="Envia los umbrales de distancia configurados al MCU.">
<polygon fill="white" stroke="#666666" points="522,-386 360.5,-386 360.5,-366 522,-366 522,-386"/>
<text xml:space="preserve" text-anchor="middle" x="441.25" y="-372.5" font-family="Helvetica,sans-Serif" font-size="10.00">MainWindow::onApplyThresholds</text>
</a>
</g>
</g>
<!-- Node2&#45;&gt;Node4 -->
<g id="edge3_Node000002_Node000004" class="edge">
<title>Node2&#45;&gt;Node4</title>
<g id="a_edge3_Node000002_Node000004"><a xlink:title=" ">
<path fill="none" stroke="#63b8ff" d="M260.46,-320.49C285.49,-330.7 325.22,-346.22 360.5,-357 367.11,-359.02 374.08,-360.96 381.04,-362.77"/>
<polygon fill="#63b8ff" stroke="#63b8ff" points="379.89,-366.09 390.44,-365.14 381.6,-359.3 379.89,-366.09"/>
</a>
</g>
</g>
<!-- Node5 -->
<g id="Node000005" class="node">
<title>Node5</title>
<g id="a_Node000005"><a xlink:href="class_main_window.html#a25bb2e84541c2329e9f6db2bbbfe6f45" target="_top" xlink:title="Resetea los tiempos de arribo a los valores por defecto (2s/4s/6s).">
<polygon fill="white" stroke="#666666" points="514.5,-348 368,-348 368,-316 514.5,-316 514.5,-348"/>
<text xml:space="preserve" text-anchor="start" x="376" y="-334.5" font-family="Helvetica,sans-Serif" font-size="10.00">MainWindow::onResetDefault</text>
<text xml:space="preserve" text-anchor="middle" x="441.25" y="-322.5" font-family="Helvetica,sans-Serif" font-size="10.00">Times</text>
</a>
</g>
</g>
<!-- Node2&#45;&gt;Node5 -->
<g id="edge4_Node000002_Node000005" class="edge">
<title>Node2&#45;&gt;Node5</title>
<g id="a_edge4_Node000002_Node000005"><a xlink:title=" ">
<path fill="none" stroke="#63b8ff" d="M318.41,-318.92C330.89,-320.26 343.78,-321.64 356.28,-322.98"/>
<polygon fill="#63b8ff" stroke="#63b8ff" points="355.81,-326.45 366.13,-324.04 356.56,-319.49 355.81,-326.45"/>
</a>
</g>
</g>
<!-- Node6 -->
<g id="Node000006" class="node">
<title>Node6</title>
<g id="a_Node000006"><a xlink:href="class_main_window.html#a6d442443dc1a8b4939ecec8cd5dce904" target="_top" xlink:title="Inicia o detiene el modo calibracion en el MCU.">
<polygon fill="white" stroke="#666666" points="519.38,-298 363.12,-298 363.12,-278 519.38,-278 519.38,-298"/>
<text xml:space="preserve" text-anchor="middle" x="441.25" y="-284.5" font-family="Helvetica,sans-Serif" font-size="10.00">MainWindow::onStartCalibration</text>
</a>
</g>
</g>
<!-- Node2&#45;&gt;Node6 -->
<g id="edge5_Node000002_Node000006" class="edge">
<title>Node2&#45;&gt;Node6</title>
<g id="a_edge5_Node000002_Node000006"><a xlink:title=" ">
<path fill="none" stroke="#63b8ff" d="M318.41,-301.08C329.28,-299.92 340.45,-298.72 351.4,-297.54"/>
<polygon fill="#63b8ff" stroke="#63b8ff" points="351.65,-301.03 361.22,-296.49 350.9,-294.07 351.65,-301.03"/>
</a>
</g>
</g>
<!-- Node7 -->
<g id="Node000007" class="node">
<title>Node7</title>
<g id="a_Node000007"><a xlink:href="class_main_window.html#a6a6851ed81ac01eb23c642c836e63578" target="_top" xlink:title="Dispara un servo manualmente para test.">
<polygon fill="white" stroke="#666666" points="507.75,-260 374.75,-260 374.75,-240 507.75,-240 507.75,-260"/>
<text xml:space="preserve" text-anchor="middle" x="441.25" y="-246.5" font-family="Helvetica,sans-Serif" font-size="10.00">MainWindow::onTestServo</text>
</a>
</g>
</g>
<!-- Node2&#45;&gt;Node7 -->
<g id="edge6_Node000002_Node000007" class="edge">
<title>Node2&#45;&gt;Node7</title>
<g id="a_edge6_Node000002_Node000007"><a xlink:title=" ">
<path fill="none" stroke="#63b8ff" d="M264.99,-299.53C290.21,-290.79 327.5,-278.32 360.5,-269 367.59,-267 375.08,-265.03 382.52,-263.16"/>
<polygon fill="#63b8ff" stroke="#63b8ff" points="383.35,-266.56 392.22,-260.77 381.68,-259.76 383.35,-266.56"/>
</a>
</g>
</g>
<!-- Node9 -->
<g id="Node000009" class="node">
<title>Node9</title>
<g id="a_Node000009"><a xlink:href="class_main_window.html#a2e025786d732966072085d687d825e4c" target="_top" xlink:title="Envia la configuracion de tipos de caja y tiempos al MCU.">
<polygon fill="white" stroke="#666666" points="512.62,-222 369.88,-222 369.88,-190 512.62,-190 512.62,-222"/>
<text xml:space="preserve" text-anchor="start" x="377.88" y="-208.5" font-family="Helvetica,sans-Serif" font-size="10.00">MainWindow::onApplyOutput</text>
<text xml:space="preserve" text-anchor="middle" x="441.25" y="-196.5" font-family="Helvetica,sans-Serif" font-size="10.00">Config</text>
</a>
</g>
</g>
<!-- Node8&#45;&gt;Node9 -->
<g id="edge8_Node000008_Node000009" class="edge">
<title>Node8&#45;&gt;Node9</title>
<g id="a_edge8_Node000008_Node000009"><a xlink:title=" ">
<path fill="none" stroke="#63b8ff" d="M256.29,-134.49C280.86,-146.59 323.05,-166.66 360.5,-181 364.84,-182.66 369.35,-184.3 373.91,-185.9"/>
<polygon fill="#63b8ff" stroke="#63b8ff" points="372.57,-189.14 383.17,-189.04 374.83,-182.51 372.57,-189.14"/>
</a>
</g>
</g>
<!-- Node10 -->
<g id="Node000010" class="node">
<title>Node10</title>
<g id="a_Node000010"><a xlink:href="class_main_window.html#aed588a1ad2fc66f2d562cbdebc360434" target="_top" xlink:title="Resetea el sistema: envia CMD_RESET y limpia contadores locales.">
<polygon fill="white" stroke="#666666" points="498.75,-172 383.75,-172 383.75,-152 498.75,-152 498.75,-172"/>
<text xml:space="preserve" text-anchor="middle" x="441.25" y="-158.5" font-family="Helvetica,sans-Serif" font-size="10.00">MainWindow::onReset</text>
</a>
</g>
</g>
<!-- Node8&#45;&gt;Node10 -->
<g id="edge9_Node000008_Node000010" class="edge">
<title>Node8&#45;&gt;Node10</title>
<g id="a_edge9_Node000008_Node000010"><a xlink:title=" ">
<path fill="none" stroke="#63b8ff" d="M291.9,-134.48C316.98,-139.14 346.69,-144.65 372.91,-149.51"/>
<polygon fill="#63b8ff" stroke="#63b8ff" points="371.95,-152.89 382.42,-151.27 373.23,-146.01 371.95,-152.89"/>
</a>
</g>
</g>
<!-- Node11 -->
<g id="Node000011" class="node">
<title>Node11</title>
<g id="a_Node000011"><a xlink:href="class_main_window.html#a8b6ad2f7b2f4dc3de571d2be7f09c161" target="_top" xlink:title="Inicia la clasificacion: envia configuracion y CMD_START al MCU.">
<polygon fill="white" stroke="#666666" points="496.12,-134 386.38,-134 386.38,-114 496.12,-114 496.12,-134"/>
<text xml:space="preserve" text-anchor="middle" x="441.25" y="-120.5" font-family="Helvetica,sans-Serif" font-size="10.00">MainWindow::onStart</text>
</a>
</g>
</g>
<!-- Node8&#45;&gt;Node11 -->
<g id="edge10_Node000008_Node000011" class="edge">
<title>Node8&#45;&gt;Node11</title>
<g id="a_edge10_Node000008_Node000011"><a xlink:title=" ">
<path fill="none" stroke="#63b8ff" d="M324.94,-124C341.66,-124 358.85,-124 374.68,-124"/>
<polygon fill="#63b8ff" stroke="#63b8ff" points="374.43,-127.5 384.43,-124 374.43,-120.5 374.43,-127.5"/>
</a>
</g>
</g>
<!-- Node12 -->
<g id="Node000012" class="node">
<title>Node12</title>
<g id="a_Node000012"><a xlink:href="class_main_window.html#a3c2de388ebdb7b541c805eb50d540fe4" target="_top" xlink:title="Detiene la clasificacion: envia CMD_STOP al MCU.">
<polygon fill="white" stroke="#666666" points="495.75,-96 386.75,-96 386.75,-76 495.75,-76 495.75,-96"/>
<text xml:space="preserve" text-anchor="middle" x="441.25" y="-82.5" font-family="Helvetica,sans-Serif" font-size="10.00">MainWindow::onStop</text>
</a>
</g>
</g>
<!-- Node8&#45;&gt;Node12 -->
<g id="edge11_Node000008_Node000012" class="edge">
<title>Node8&#45;&gt;Node12</title>
<g id="a_edge11_Node000008_Node000012"><a xlink:title=" ">
<path fill="none" stroke="#63b8ff" d="M291.9,-113.52C317.71,-108.73 348.41,-103.03 375.18,-98.07"/>
<polygon fill="#63b8ff" stroke="#63b8ff" points="375.7,-101.53 384.89,-96.27 374.42,-94.65 375.7,-101.53"/>
</a>
</g>
</g>
<!-- Node13&#45;&gt;Node14 -->
<g id="edge13_Node000013_Node000014" class="edge">
<title>Node13&#45;&gt;Node14</title>
<g id="a_edge13_Node000013_Node000014"><a xlink:title=" ">
<path fill="none" stroke="#63b8ff" d="M291.9,-75.52C316.98,-70.86 346.69,-65.35 372.91,-60.49"/>
<polygon fill="#63b8ff" stroke="#63b8ff" points="373.23,-63.99 382.42,-58.73 371.95,-57.11 373.23,-63.99"/>
</a>
</g>
</g>
<!-- Node16 -->
<g id="Node000016" class="node">
<title>Node16</title>
<g id="a_Node000016"><a xlink:href="class_main_window.html#a9cc4b9352cc8f0fb336fb4791e1f1ea0" target="_top" xlink:title="Refresca la lista de puertos serie disponibles.">
<polygon fill="white" stroke="#666666" points="514.5,-20 368,-20 368,0 514.5,0 514.5,-20"/>
<text xml:space="preserve" text-anchor="middle" x="441.25" y="-6.5" font-family="Helvetica,sans-Serif" font-size="10.00">MainWindow::onRefreshPorts</text>
</a>
</g>
</g>
<!-- Node15&#45;&gt;Node16 -->
<g id="edge15_Node000015_Node000016" class="edge">
<title>Node15&#45;&gt;Node16</title>
<g id="a_edge15_Node000015_Node000016"><a xlink:title=" ">
<path fill="none" stroke="#63b8ff" d="M299.64,-10C317.6,-10 337.4,-10 356.32,-10"/>
<polygon fill="#63b8ff" stroke="#63b8ff" points="356.14,-13.5 366.14,-10 356.14,-6.5 356.14,-13.5"/>
</a>
</g>
</g>
</g>
</svg>
