<?xml version="1.0" encoding="UTF-8" standalone="no"?>
<!DOCTYPE svg PUBLIC "-//W3C//DTD SVG 1.1//EN"
 "http://www.w3.org/Graphics/SVG/1.1/DTD/svg11.dtd">
<!-- Generated by graphviz version 14.1.5 (20260411.2331)
 -->
<!-- Title: SerialManager::SerialManager Pages: 1 -->
<svg width="518pt" height="28pt"
 viewBox="0.00 0.00 518.00 28.00" xmlns="http://www.w3.org/2000/svg" xmlns:xlink="http://www.w3.org/1999/xlink">
<g id="graph0" class="graph" transform="scale(1 1) rotate(0) translate(4 24)">
<title>SerialManager::SerialManager</title>
<!-- Node1 -->
<g id="Node000001" class="node">
<title>Node1</title>
<g id="a_Node000001"><a xlink:title="Constructor. Crea el QSerialPort y el timer de heartbeat.">
<polygon fill="#999999" stroke="#666666" points="146.5,-20 0,-20 0,0 146.5,0 146.5,-20"/>
<text xml:space="preserve" text-anchor="middle" x="73.25" y="-6.5" font-family="Helvetica,sans-Serif" font-size="10.00">SerialManager::SerialManager</text>
</a>
</g>
</g>
<!-- Node2 -->
<g id="Node000002" class="node">
<title>Node2</title>
<g id="a_Node000002"><a xlink:href="class_serial_manager.html#a978739631dbc4875c5151668e1452778" target="_top" xlink:title="Slot del timer de heartbeat: envia CMD_ALIVE cada 500 ms.">
<polygon fill="white" stroke="#666666" points="323.75,-20 182.5,-20 182.5,0 323.75,0 323.75,-20"/>
<text xml:space="preserve" text-anchor="middle" x="253.12" y="-6.5" font-family="Helvetica,sans-Serif" font-size="10.00">SerialManager::onAliveTimer</text>
</a>
</g>
</g>
<!-- Node1&#45;&gt;Node2 -->
<g id="edge1_Node000001_Node000002" class="edge">
<title>Node1&#45;&gt;Node2</title>
<g id="a_edge1_Node000001_Node000002"><a xlink:title=" ">
<path fill="none" stroke="#63b8ff" d="M146.86,-10C154.66,-10 162.65,-10 170.55,-10"/>
<polygon fill="#63b8ff" stroke="#63b8ff" points="170.54,-13.5 180.54,-10 170.54,-6.5 170.54,-13.5"/>
</a>
</g>
</g>
<!-- Node3 -->
<g id="Node000003" class="node">
<title>Node3</title>
<g id="a_Node000003"><a xlink:href="class_serial_manager.html#ab9fb00276941e33fe0c7be0f42e0246e" target="_top" xlink:title="Envia un comando al MCU encapsulado en una trama UNER.">
<polygon fill="white" stroke="#666666" points="510,-20 359.75,-20 359.75,0 510,0 510,-20"/>
<text xml:space="preserve" text-anchor="middle" x="434.88" y="-6.5" font-family="Helvetica,sans-Serif" font-size="10.00">SerialManager::sendCommand</text>
</a>
</g>
</g>
<!-- Node2&#45;&gt;Node3 -->
<g id="edge2_Node000002_Node000003" class="edge">
<title>Node2&#45;&gt;Node3</title>
<g id="a_edge2_Node000002_Node000003"><a xlink:title=" ">
<path fill="none" stroke="#63b8ff" d="M324.14,-10C331.97,-10 340.03,-10 348.03,-10"/>
<polygon fill="#63b8ff" stroke="#63b8ff" points="347.79,-13.5 357.79,-10 347.79,-6.5 347.79,-13.5"/>
</a>
</g>
</g>
</g>
</svg>
