<?xml version="1.0" encoding="UTF-8" standalone="no"?>
<!DOCTYPE svg PUBLIC "-//W3C//DTD SVG 1.1//EN"
 "http://www.w3.org/Graphics/SVG/1.1/DTD/svg11.dtd">
<!-- Generated by graphviz version 14.1.5 (20260411.2331)
 -->
<!-- Title: MainWindow::buildClassificationPage Pages: 1 -->
<svg width="367pt" height="154pt"
 viewBox="0.00 0.00 367.00 154.00" xmlns="http://www.w3.org/2000/svg" xmlns:xlink="http://www.w3.org/1999/xlink">
<g id="graph0" class="graph" transform="scale(1 1) rotate(0) translate(4 150)">
<title>MainWindow::buildClassificationPage</title>
<!-- Node1 -->
<g id="Node000001" class="node">
<title>Node1</title>
<g id="a_Node000001"><a xlink:title="Construye la pagina de Clasificacion.">
<polygon fill="#999999" stroke="#666666" points="180.25,-77 0,-77 0,-57 180.25,-57 180.25,-77"/>
<text xml:space="preserve" text-anchor="middle" x="90.12" y="-63.5" font-family="Helvetica,sans-Serif" font-size="10.00">MainWindow::buildClassificationPage</text>
</a>
</g>
</g>
<!-- Node2 -->
<g id="Node000002" class="node">
<title>Node2</title>
<g id="a_Node000002"><a xlink:href="class_main_window.html#a2e025786d732966072085d687d825e4c" target="_top" xlink:title="Envia la configuracion de tipos de caja y tiempos al MCU.">
<polygon fill="white" stroke="#666666" points="359,-146 216.25,-146 216.25,-114 359,-114 359,-146"/>
<text xml:space="preserve" text-anchor="start" x="224.25" y="-132.5" font-family="Helvetica,sans-Serif" font-size="10.00">MainWindow::onApplyOutput</text>
<text xml:space="preserve" text-anchor="middle" x="287.62" y="-120.5" font-family="Helvetica,sans-Serif" font-size="10.00">Config</text>
</a>
</g>
</g>
<!-- Node1&#45;&gt;Node2 -->
<g id="edge1_Node000001_Node000002" class="edge">
<title>Node1&#45;&gt;Node2</title>
<g id="a_edge1_Node000001_Node000002"><a xlink:title=" ">
<path fill="none" stroke="#63b8ff" d="M123.41,-77.4C150.91,-86.26 191.2,-99.25 224.87,-110.1"/>
<polygon fill="#63b8ff" stroke="#63b8ff" points="223.51,-113.34 234.1,-113.07 225.66,-106.68 223.51,-113.34"/>
</a>
</g>
</g>
<!-- Node3 -->
<g id="Node000003" class="node">
<title>Node3</title>
<g id="a_Node000003"><a xlink:href="class_main_window.html#aed588a1ad2fc66f2d562cbdebc360434" target="_top" xlink:title="Resetea el sistema: envia CMD_RESET y limpia contadores locales.">
<polygon fill="white" stroke="#666666" points="345.12,-96 230.12,-96 230.12,-76 345.12,-76 345.12,-96"/>
<text xml:space="preserve" text-anchor="middle" x="287.62" y="-82.5" font-family="Helvetica,sans-Serif" font-size="10.00">MainWindow::onReset</text>
</a>
</g>
</g>
<!-- Node1&#45;&gt;Node3 -->
<g id="edge2_Node000001_Node000003" class="edge">
<title>Node1&#45;&gt;Node3</title>
<g id="a_edge2_Node000001_Node000003"><a xlink:title=" ">
<path fill="none" stroke="#63b8ff" d="M180.58,-75.69C193.23,-76.92 206.06,-78.17 218.23,-79.35"/>
<polygon fill="#63b8ff" stroke="#63b8ff" points="217.86,-82.83 228.15,-80.32 218.54,-75.87 217.86,-82.83"/>
</a>
</g>
</g>
<!-- Node4 -->
<g id="Node000004" class="node">
<title>Node4</title>
<g id="a_Node000004"><a xlink:href="class_main_window.html#a8b6ad2f7b2f4dc3de571d2be7f09c161" target="_top" xlink:title="Inicia la clasificacion: envia configuracion y CMD_START al MCU.">
<polygon fill="white" stroke="#666666" points="342.5,-58 232.75,-58 232.75,-38 342.5,-38 342.5,-58"/>
<text xml:space="preserve" text-anchor="middle" x="287.62" y="-44.5" font-family="Helvetica,sans-Serif" font-size="10.00">MainWindow::onStart</text>
</a>
</g>
</g>
<!-- Node1&#45;&gt;Node4 -->
<g id="edge3_Node000001_Node000004" class="edge">
<title>Node1&#45;&gt;Node4</title>
<g id="a_edge3_Node000001_Node000004"><a xlink:title=" ">
<path fill="none" stroke="#63b8ff" d="M180.58,-58.31C194.27,-56.98 208.17,-55.62 221.21,-54.36"/>
<polygon fill="#63b8ff" stroke="#63b8ff" points="221.3,-57.87 230.91,-53.41 220.62,-50.9 221.3,-57.87"/>
</a>
</g>
</g>
<!-- Node5 -->
<g id="Node000005" class="node">
<title>Node5</title>
<g id="a_Node000005"><a xlink:href="class_main_window.html#a3c2de388ebdb7b541c805eb50d540fe4" target="_top" xlink:title="Detiene la clasificacion: envia CMD_STOP al MCU.">
<polygon fill="white" stroke="#666666" points="342.12,-20 233.12,-20 233.12,0 342.12,0 342.12,-20"/>
<text xml:space="preserve" text-anchor="middle" x="287.62" y="-6.5" font-family="Helvetica,sans-Serif" font-size="10.00">MainWindow::onStop</text>
</a>
</g>
</g>
<!-- Node1&#45;&gt;Node5 -->
<g id="edge4_Node000001_Node000005" class="edge">
<title>Node1&#45;&gt;Node5</title>
<g id="a_edge4_Node000001_Node000005"><a xlink:title=" ">
<path fill="none" stroke="#63b8ff" d="M124.5,-56.56C149.66,-48.76 185.04,-37.95 216.25,-29 222.64,-27.17 229.37,-25.29 236.03,-23.46"/>
<polygon fill="#63b8ff" stroke="#63b8ff" points="236.92,-26.84 245.65,-20.83 235.08,-20.09 236.92,-26.84"/>
</a>
</g>
</g>
</g>
</svg>
