<?xml version="1.0" encoding="UTF-8" standalone="no"?>
<!DOCTYPE svg PUBLIC "-//W3C//DTD SVG 1.1//EN"
 "http://www.w3.org/Graphics/SVG/1.1/DTD/svg11.dtd">
<!-- Generated by graphviz version 14.1.5 (20260411.2331)
 -->
<!-- Title: MainWindow::MainWindow Pages: 1 -->
<!--zoomable 836 -->

<svg id="main" version="1.1" xmlns="http://www.w3.org/2000/svg" xmlns:xlink="http://www.w3.org/1999/xlink" xml:space="preserve" onload="init(evt)">

<style type="text/css"><![CDATA[
.node, .edge {opacity: 0.7;}
.node.selected, .edge.selected {opacity: 1;}
.edge:hover path { stroke: red; }
.edge:hover polygon { stroke: red; fill: red; }
]]></style>

<defs>
  <circle id="rim" cx="0" cy="0" r="7"/>
  <circle id="rim2" cx="0" cy="0" r="3.5"/>
  <g id="zoomPlus">
    <use xlink:href="#rim" fill="#404040"><set attributeName="fill" to="#808080" begin="zoomplus.mouseover" end="zoomplus.mouseout"/></use>
    <path d="M-4,0h8M0,-4v8" fill="none" stroke="white" stroke-width="1.5" pointer-events="none"/>
  </g>
  <g id="zoomMin">
    <use xlink:href="#rim" fill="#404040"><set attributeName="fill" to="#808080" begin="zoomminus.mouseover" end="zoomminus.mouseout"/></use>
    <path d="M-4,0h8" fill="none" stroke="white" stroke-width="1.5" pointer-events="none"/>
  </g>
  <g id="arrowUp" transform="translate(30 24)">
    <use xlink:href="#rim"/>
    <path pointer-events="none" fill="none" stroke="white" stroke-width="1.5" d="M0,-3.0v7 M-2.5,-0.5L0,-3.0L2.5,-0.5"/>
  </g>
  <g id="arrowRight" transform="rotate(90) translate(36 -43)">
    <use xlink:href="#rim"/>
    <path pointer-events="none" fill="none" stroke="white" stroke-width="1.5" d="M0,-3.0v7 M-2.5,-0.5L0,-3.0L2.5,-0.5"/>
  </g>
  <g id="arrowDown" transform="rotate(180) translate(-30 -48)">
    <use xlink:href="#rim"/>
    <path pointer-events="none" fill="none" stroke="white" stroke-width="1.5" d="M0,-3.0v7 M-2.5,-0.5L0,-3.0L2.5,-0.5"/>
  </g>
  <g id="arrowLeft" transform="rotate(270) translate(-36 17)">
    <use xlink:href="#rim"/>
    <path pointer-events="none" fill="none" stroke="white" stroke-width="1.5" d="M0,-3.0v7 M-2.5,-0.5L0,-3.0L2.5,-0.5"/>
  </g>
  <g id="resetDef">
    <use xlink:href="#rim2" fill="#404040"><set attributeName="fill" to="#808080" begin="reset.mouseover" end="reset.mouseout"/></use>
  </g>
</defs>
<script type="application/ecmascript">
var viewWidth = 766;
var viewHeight = 836;
var sectionId = 'dynsection-2';
</script>
<script type="application/ecmascript" xlink:href="svg.min.js"/>
<svg id="graph" class="graph">
<g id="viewport">
<title>MainWindow::MainWindow</title>
<!-- Node1 -->
<g id="Node000001" class="node">
<title>Node1</title>
<g id="a_Node000001"><a xlink:title="Constructor. Construye la UI, aplica estilos y conecta senales.">
<polygon fill="#999999" stroke="#666666" points="134.5,-229 0,-229 0,-209 134.5,-209 134.5,-229"/>
<text xml:space="preserve" text-anchor="middle" x="67.25" y="-215.5" font-family="Helvetica,sans-Serif" font-size="10.00">MainWindow::MainWindow</text>
</a>
</g>
</g>
<!-- Node2 -->
<g id="Node000002" class="node">
<title>Node2</title>
<g id="a_Node000002"><a xlink:href="class_main_window.html#a537dff0797e09a03235e397a9fe4949a" target="_top" xlink:title="Aplica el stylesheet con soporte High DPI (unidades en pt).">
<polygon fill="white" stroke="#666666" points="319.25,-488 195.25,-488 195.25,-468 319.25,-468 319.25,-488"/>
<text xml:space="preserve" text-anchor="middle" x="257.25" y="-474.5" font-family="Helvetica,sans-Serif" font-size="10.00">MainWindow::applyStyle</text>
</a>
</g>
</g>
<!-- Node1&#45;&gt;Node2 -->
<g id="edge1_Node000001_Node000002" class="edge">
<title>Node1&#45;&gt;Node2</title>
<g id="a_edge1_Node000001_Node000002"><a xlink:title=" ">
<path fill="none" stroke="#63b8ff" d="M69.35,-229.38C73.9,-266.83 94.72,-396.07 170.5,-459 174.68,-462.47 179.36,-465.34 184.31,-467.72"/>
<polygon fill="#63b8ff" stroke="#63b8ff" points="182.81,-470.89 193.4,-471.36 185.41,-464.39 182.81,-470.89"/>
</a>
</g>
</g>
<!-- Node3 -->
<g id="Node000003" class="node">
<title>Node3</title>
<g id="a_Node000003"><a xlink:href="class_main_window.html#afe1bceaad866b6fed583ba83245ae195" target="_top" xlink:title="Construye todos los widgets de la interfaz.">
<polygon fill="white" stroke="#666666" points="311.38,-450 203.12,-450 203.12,-430 311.38,-430 311.38,-450"/>
<text xml:space="preserve" text-anchor="middle" x="257.25" y="-436.5" font-family="Helvetica,sans-Serif" font-size="10.00">MainWindow::buildUi</text>
</a>
</g>
</g>
<!-- Node1&#45;&gt;Node3 -->
<g id="edge2_Node000001_Node000003" class="edge">
<title>Node1&#45;&gt;Node3</title>
<g id="a_edge2_Node000001_Node000003"><a xlink:title=" ">
<path fill="none" stroke="#63b8ff" d="M73.11,-229.21C86.13,-255.87 124.01,-328.91 170.5,-378 187.58,-396.04 210.54,-412.32 228.4,-423.66"/>
<polygon fill="#63b8ff" stroke="#63b8ff" points="226.36,-426.51 236.7,-428.8 230.04,-420.56 226.36,-426.51"/>
</a>
</g>
</g>
<!-- Node18 -->
<g id="Node000018" class="node">
<title>Node18</title>
<g id="a_Node000018"><a xlink:href="class_main_window.html#a9cc4b9352cc8f0fb336fb4791e1f1ea0" target="_top" xlink:title="Refresca la lista de puertos serie disponibles.">
<polygon fill="white" stroke="#666666" points="750.25,-393 603.75,-393 603.75,-373 750.25,-373 750.25,-393"/>
<text xml:space="preserve" text-anchor="middle" x="677" y="-379.5" font-family="Helvetica,sans-Serif" font-size="10.00">MainWindow::onRefreshPorts</text>
</a>
</g>
</g>
<!-- Node1&#45;&gt;Node18 -->
<g id="edge24_Node000001_Node000018" class="edge">
<title>Node1&#45;&gt;Node18</title>
<g id="a_edge24_Node000001_Node000018"><a xlink:title=" ">
<path fill="none" stroke="#63b8ff" d="M72.89,-229.19C84.88,-254.16 119.58,-318.36 170.5,-345 206.8,-363.99 457.71,-375.46 591.85,-380.3"/>
<polygon fill="#63b8ff" stroke="#63b8ff" points="591.64,-383.8 601.76,-380.65 591.89,-376.8 591.64,-383.8"/>
</a>
</g>
</g>
<!-- Node19 -->
<g id="Node000019" class="node">
<title>Node19</title>
<g id="a_Node000019"><a xlink:href="class_serial_manager.html#a6800394366d8b7b2b3daeda81caaf1b7" target="_top" xlink:title="Emitida al conectar exitosamente al puerto serie.">
<polygon fill="white" stroke="#666666" points="321.88,-336 192.62,-336 192.62,-316 321.88,-316 321.88,-336"/>
<text xml:space="preserve" text-anchor="middle" x="257.25" y="-322.5" font-family="Helvetica,sans-Serif" font-size="10.00">SerialManager::connected</text>
</a>
</g>
</g>
<!-- Node1&#45;&gt;Node19 -->
<g id="edge19_Node000001_Node000019" class="edge">
<title>Node1&#45;&gt;Node19</title>
<g id="a_edge19_Node000001_Node000019"><a xlink:title=" ">
<path fill="none" stroke="#63b8ff" d="M76.94,-229.26C93.27,-247.84 130.5,-286.97 170.5,-307 174.01,-308.76 177.69,-310.36 181.46,-311.81"/>
<polygon fill="#63b8ff" stroke="#63b8ff" points="180.25,-315.1 190.85,-315.03 182.52,-308.47 180.25,-315.1"/>
</a>
</g>
</g>
<!-- Node20 -->
<g id="Node000020" class="node">
<title>Node20</title>
<g id="a_Node000020"><a xlink:href="class_serial_manager.html#aba3a12f136892744725b45a0f2d33f96" target="_top" xlink:title="Emitida cuando ocurre un error al abrir el puerto.">
<polygon fill="white" stroke="#666666" points="323,-298 191.5,-298 191.5,-266 323,-266 323,-298"/>
<text xml:space="preserve" text-anchor="start" x="199.5" y="-284.5" font-family="Helvetica,sans-Serif" font-size="10.00">SerialManager::connection</text>
<text xml:space="preserve" text-anchor="middle" x="257.25" y="-272.5" font-family="Helvetica,sans-Serif" font-size="10.00">Error</text>
</a>
</g>
</g>
<!-- Node1&#45;&gt;Node20 -->
<g id="edge20_Node000001_Node000020" class="edge">
<title>Node1&#45;&gt;Node20</title>
<g id="a_edge20_Node000001_Node000020"><a xlink:title=" ">
<path fill="none" stroke="#63b8ff" d="M94.55,-229.37C115.09,-237.32 144.43,-248.37 170.5,-257 175.88,-258.78 181.48,-260.57 187.11,-262.31"/>
<polygon fill="#63b8ff" stroke="#63b8ff" points="185.92,-265.61 196.51,-265.18 187.96,-258.91 185.92,-265.61"/>
</a>
</g>
</g>
<!-- Node21 -->
<g id="Node000021" class="node">
<title>Node21</title>
<g id="a_Node000021"><a xlink:href="class_serial_manager.html#a35c3260cdd251e6628824ff41fb1deee" target="_top" xlink:title="Emitida al desconectar del puerto serie.">
<polygon fill="white" stroke="#666666" points="328.25,-248 186.25,-248 186.25,-228 328.25,-228 328.25,-248"/>
<text xml:space="preserve" text-anchor="middle" x="257.25" y="-234.5" font-family="Helvetica,sans-Serif" font-size="10.00">SerialManager::disconnected</text>
</a>
</g>
</g>
<!-- Node1&#45;&gt;Node21 -->
<g id="edge21_Node000001_Node000021" class="edge">
<title>Node1&#45;&gt;Node21</title>
<g id="a_edge21_Node000001_Node000021"><a xlink:title=" ">
<path fill="none" stroke="#63b8ff" d="M134.8,-225.73C147.75,-227.03 161.47,-228.42 174.84,-229.77"/>
<polygon fill="#63b8ff" stroke="#63b8ff" points="174.16,-233.22 184.46,-230.75 174.87,-226.26 174.16,-233.22"/>
</a>
</g>
</g>
<!-- Node22 -->
<g id="Node000022" class="node">
<title>Node22</title>
<g id="a_Node000022"><a xlink:href="class_serial_manager.html#a76f16d83950cba09e6b5a495fbaacc83" target="_top" xlink:title="Emitida al recibir una trama UNER valida con checksum correcto.">
<polygon fill="white" stroke="#666666" points="332.38,-210 182.12,-210 182.12,-190 332.38,-190 332.38,-210"/>
<text xml:space="preserve" text-anchor="middle" x="257.25" y="-196.5" font-family="Helvetica,sans-Serif" font-size="10.00">SerialManager::frameReceived</text>
</a>
</g>
</g>
<!-- Node1&#45;&gt;Node22 -->
<g id="edge22_Node000001_Node000022" class="edge">
<title>Node1&#45;&gt;Node22</title>
<g id="a_edge22_Node000001_Node000022"><a xlink:title=" ">
<path fill="none" stroke="#63b8ff" d="M134.8,-212.27C146.32,-211.11 158.45,-209.88 170.41,-208.68"/>
<polygon fill="#63b8ff" stroke="#63b8ff" points="170.68,-212.17 180.28,-207.68 169.98,-205.2 170.68,-212.17"/>
</a>
</g>
</g>
<!-- Node23 -->
<g id="Node000023" class="node">
<title>Node23</title>
<g id="a_Node000023"><a xlink:href="class_main_window.html#a18c4f697af0b5fd5019d019d878a4898" target="_top" xlink:title="Despacha las tramas recibidas del MCU y actualiza la UI.">
<polygon fill="white" stroke="#666666" points="336.12,-172 178.38,-172 178.38,-152 336.12,-152 336.12,-172"/>
<text xml:space="preserve" text-anchor="middle" x="257.25" y="-158.5" font-family="Helvetica,sans-Serif" font-size="10.00">MainWindow::onFrameReceived</text>
</a>
</g>
</g>
<!-- Node1&#45;&gt;Node23 -->
<g id="edge23_Node000001_Node000023" class="edge">
<title>Node1&#45;&gt;Node23</title>
<g id="a_edge23_Node000001_Node000023"><a xlink:title=" ">
<path fill="none" stroke="#63b8ff" d="M93.14,-208.65C113.64,-200.39 143.62,-188.93 170.5,-181 177.67,-178.88 185.25,-176.88 192.8,-175.03"/>
<polygon fill="#63b8ff" stroke="#63b8ff" points="193.41,-178.48 202.34,-172.77 191.8,-171.67 193.41,-178.48"/>
</a>
</g>
</g>
<!-- Node24 -->
<g id="Node000024" class="node">
<title>Node24</title>
<g id="a_Node000024"><a xlink:href="class_main_window.html#a67a68a189c908b9b50bdbe290afa392e" target="_top" xlink:title="Timer de refresco de UI a 10 Hz: actualiza cola de cajas.">
<polygon fill="white" stroke="#666666" points="328.25,-134 186.25,-134 186.25,-114 328.25,-114 328.25,-134"/>
<text xml:space="preserve" text-anchor="middle" x="257.25" y="-120.5" font-family="Helvetica,sans-Serif" font-size="10.00">MainWindow::onRefreshTick</text>
</a>
</g>
</g>
<!-- Node1&#45;&gt;Node24 -->
<g id="edge25_Node000001_Node000024" class="edge">
<title>Node1&#45;&gt;Node24</title>
<g id="a_edge25_Node000001_Node000024"><a xlink:title=" ">
<path fill="none" stroke="#63b8ff" d="M78.89,-208.63C96.46,-192.12 133.28,-160.01 170.5,-143 174.71,-141.08 179.13,-139.34 183.65,-137.78"/>
<polygon fill="#63b8ff" stroke="#63b8ff" points="184.39,-141.21 192.88,-134.88 182.29,-134.53 184.39,-141.21"/>
</a>
</g>
</g>
<!-- Node26 -->
<g id="Node000026" class="node">
<title>Node26</title>
<g id="a_Node000026"><a xlink:href="class_main_window.html#a0eebfe7d6068e82d4ef2032231c4969f" target="_top" xlink:title="Slot invocado al conectar exitosamente al puerto.">
<polygon fill="white" stroke="#666666" points="337.62,-96 176.88,-96 176.88,-76 337.62,-76 337.62,-96"/>
<text xml:space="preserve" text-anchor="middle" x="257.25" y="-82.5" font-family="Helvetica,sans-Serif" font-size="10.00">MainWindow::onSerialConnected</text>
</a>
</g>
</g>
<!-- Node1&#45;&gt;Node26 -->
<g id="edge27_Node000001_Node000026" class="edge">
<title>Node1&#45;&gt;Node26</title>
<g id="a_edge27_Node000001_Node000026"><a xlink:title=" ">
<path fill="none" stroke="#63b8ff" d="M74.41,-208.53C88.37,-185.77 124.82,-131.69 170.5,-105 173.28,-103.38 176.18,-101.89 179.17,-100.53"/>
<polygon fill="#63b8ff" stroke="#63b8ff" points="180.19,-103.9 188.18,-96.95 177.6,-97.39 180.19,-103.9"/>
</a>
</g>
</g>
<!-- Node27 -->
<g id="Node000027" class="node">
<title>Node27</title>
<g id="a_Node000027"><a xlink:href="class_main_window.html#a01b045a99f4b5c15999ad31e0c6085c6" target="_top" xlink:title="Slot invocado al desconectar del puerto.">
<polygon fill="white" stroke="#666666" points="344,-58 170.5,-58 170.5,-38 344,-38 344,-58"/>
<text xml:space="preserve" text-anchor="middle" x="257.25" y="-44.5" font-family="Helvetica,sans-Serif" font-size="10.00">MainWindow::onSerialDisconnected</text>
</a>
</g>
</g>
<!-- Node1&#45;&gt;Node27 -->
<g id="edge28_Node000001_Node000027" class="edge">
<title>Node1&#45;&gt;Node27</title>
<g id="a_edge28_Node000001_Node000027"><a xlink:title=" ">
<path fill="none" stroke="#63b8ff" d="M72.08,-208.5C82.82,-180.58 116.1,-104.08 170.5,-67 172.47,-65.66 174.52,-64.41 176.63,-63.25"/>
<polygon fill="#63b8ff" stroke="#63b8ff" points="177.96,-66.49 185.52,-59.06 174.98,-60.15 177.96,-66.49"/>
</a>
</g>
</g>
<!-- Node28 -->
<g id="Node000028" class="node">
<title>Node28</title>
<g id="a_Node000028"><a xlink:href="class_main_window.html#ad677f75546d43f056bd7b2f546a358af" target="_top" xlink:title="Slot invocado al ocurrir un error de conexion.">
<polygon fill="white" stroke="#666666" points="324.5,-20 190,-20 190,0 324.5,0 324.5,-20"/>
<text xml:space="preserve" text-anchor="middle" x="257.25" y="-6.5" font-family="Helvetica,sans-Serif" font-size="10.00">MainWindow::onSerialError</text>
</a>
</g>
</g>
<!-- Node1&#45;&gt;Node28 -->
<g id="edge29_Node000001_Node000028" class="edge">
<title>Node1&#45;&gt;Node28</title>
<g id="a_edge29_Node000001_Node000028"><a xlink:title=" ">
<path fill="none" stroke="#63b8ff" d="M70.55,-208.79C78.34,-176.7 106.86,-77.13 170.5,-29 173.27,-26.91 176.22,-25.03 179.31,-23.36"/>
<polygon fill="#63b8ff" stroke="#63b8ff" points="180.53,-26.65 188.16,-19.3 177.61,-20.29 180.53,-26.65"/>
</a>
</g>
</g>
<!-- Node4 -->
<g id="Node000004" class="node">
<title>Node4</title>
<g id="a_Node000004"><a xlink:href="class_main_window.html#a2ce2d016528e5a22bc5556c7ab9e58c2" target="_top" xlink:title="Construye la pagina de Calibracion.">
<polygon fill="white" stroke="#666666" points="553.88,-712 386.38,-712 386.38,-692 553.88,-692 553.88,-712"/>
<text xml:space="preserve" text-anchor="middle" x="470.12" y="-698.5" font-family="Helvetica,sans-Serif" font-size="10.00">MainWindow::buildCalibrationPage</text>
</a>
</g>
</g>
<!-- Node3&#45;&gt;Node4 -->
<g id="edge3_Node000003_Node000004" class="edge">
<title>Node3&#45;&gt;Node4</title>
<g id="a_edge3_Node000003_Node000004"><a xlink:title=" ">
<path fill="none" stroke="#63b8ff" d="M311.48,-444.03C323.11,-446.92 334.7,-451.58 344,-459 373.22,-482.3 363.2,-501.61 380,-535 406.96,-588.57 440.77,-650.62 457.97,-681.85"/>
<polygon fill="#63b8ff" stroke="#63b8ff" points="454.69,-683.15 462.59,-690.22 460.82,-679.77 454.69,-683.15"/>
</a>
</g>
</g>
<!-- Node10 -->
<g id="Node000010" class="node">
<title>Node10</title>
<g id="a_Node000010"><a xlink:href="class_main_window.html#abf4c329af69c176000bf54106dfab198" target="_top" xlink:title="Construye la pagina de Clasificacion.">
<polygon fill="white" stroke="#666666" points="560.25,-526 380,-526 380,-506 560.25,-506 560.25,-526"/>
<text xml:space="preserve" text-anchor="middle" x="470.12" y="-512.5" font-family="Helvetica,sans-Serif" font-size="10.00">MainWindow::buildClassificationPage</text>
</a>
</g>
</g>
<!-- Node3&#45;&gt;Node10 -->
<g id="edge9_Node000003_Node000010" class="edge">
<title>Node3&#45;&gt;Node10</title>
<g id="a_edge9_Node000003_Node000010"><a xlink:title=" ">
<path fill="none" stroke="#63b8ff" d="M311.76,-446.72C322.87,-449.51 334.18,-453.44 344,-459 364.24,-470.46 359.71,-485.62 380,-497 383.01,-498.69 386.15,-500.22 389.38,-501.63"/>
<polygon fill="#63b8ff" stroke="#63b8ff" points="387.94,-504.82 398.53,-505.11 390.44,-498.28 387.94,-504.82"/>
</a>
</g>
</g>
<!-- Node15 -->
<g id="Node000015" class="node">
<title>Node15</title>
<g id="a_Node000015"><a xlink:href="class_main_window.html#a0531fa9a3d2a53bacd3923ea4d4cef5a" target="_top" xlink:title="Construye el panel lateral de navegacion.">
<polygon fill="white" stroke="#666666" points="535.88,-488 404.38,-488 404.38,-468 535.88,-468 535.88,-488"/>
<text xml:space="preserve" text-anchor="middle" x="470.12" y="-474.5" font-family="Helvetica,sans-Serif" font-size="10.00">MainWindow::buildSidebar</text>
</a>
</g>
</g>
<!-- Node3&#45;&gt;Node15 -->
<g id="edge14_Node000003_Node000015" class="edge">
<title>Node3&#45;&gt;Node15</title>
<g id="a_edge14_Node000003_Node000015"><a xlink:title=" ">
<path fill="none" stroke="#63b8ff" d="M311.74,-449.64C338.45,-454.45 371.1,-460.34 399.72,-465.49"/>
<polygon fill="#63b8ff" stroke="#63b8ff" points="398.93,-468.91 409.39,-467.24 400.17,-462.02 398.93,-468.91"/>
</a>
</g>
</g>
<!-- Node16 -->
<g id="Node000016" class="node">
<title>Node16</title>
<g id="a_Node000016"><a xlink:href="class_main_window.html#acf8c1e42d3406ce03b5a8f14ee0b6dd0" target="_top" xlink:title="Cambia la pagina visible en el area central.">
<polygon fill="white" stroke="#666666" points="734.12,-450 619.88,-450 619.88,-430 734.12,-430 734.12,-450"/>
<text xml:space="preserve" text-anchor="middle" x="677" y="-436.5" font-family="Helvetica,sans-Serif" font-size="10.00">MainWindow::setPage</text>
</a>
</g>
</g>
<!-- Node3&#45;&gt;Node16 -->
<g id="edge18_Node000003_Node000016" class="edge">
<title>Node3&#45;&gt;Node16</title>
<g id="a_edge18_Node000003_Node000016"><a xlink:title=" ">
<path fill="none" stroke="#63b8ff" d="M311.58,-440C387.21,-440 525.6,-440 608.36,-440"/>
<polygon fill="#63b8ff" stroke="#63b8ff" points="608.14,-443.5 618.14,-440 608.14,-436.5 608.14,-443.5"/>
</a>
</g>
</g>
<!-- Node17 -->
<g id="Node000017" class="node">
<title>Node17</title>
<g id="a_Node000017"><a xlink:href="class_main_window.html#acd664ecee4d4b04d7caeef52b628efff" target="_top" xlink:title="Construye la barra de herramientas superior.">
<polygon fill="white" stroke="#666666" points="535.12,-412 405.12,-412 405.12,-392 535.12,-392 535.12,-412"/>
<text xml:space="preserve" text-anchor="middle" x="470.12" y="-398.5" font-family="Helvetica,sans-Serif" font-size="10.00">MainWindow::buildToolbar</text>
</a>
</g>
</g>
<!-- Node3&#45;&gt;Node17 -->
<g id="edge16_Node000003_Node000017" class="edge">
<title>Node3&#45;&gt;Node17</title>
<g id="a_edge16_Node000003_Node000017"><a xlink:title=" ">
<path fill="none" stroke="#63b8ff" d="M311.74,-430.36C338.45,-425.55 371.1,-419.66 399.72,-414.51"/>
<polygon fill="#63b8ff" stroke="#63b8ff" points="400.17,-417.98 409.39,-412.76 398.93,-411.09 400.17,-417.98"/>
</a>
</g>
</g>
<!-- Node5 -->
<g id="Node000005" class="node">
<title>Node5</title>
<g id="a_Node000005"><a xlink:href="class_main_window.html#a9081339f72d997b6afd3485169c8a5b2" target="_top" xlink:title="Envia los angulos de servo configurados al MCU.">
<polygon fill="white" stroke="#666666" points="746.5,-828 607.5,-828 607.5,-796 746.5,-796 746.5,-828"/>
<text xml:space="preserve" text-anchor="start" x="615.5" y="-814.5" font-family="Helvetica,sans-Serif" font-size="10.00">MainWindow::onApplyServo</text>
<text xml:space="preserve" text-anchor="middle" x="677" y="-802.5" font-family="Helvetica,sans-Serif" font-size="10.00">Angle</text>
</a>
</g>
</g>
<!-- Node4&#45;&gt;Node5 -->
<g id="edge4_Node000004_Node000005" class="edge">
<title>Node4&#45;&gt;Node5</title>
<g id="a_edge4_Node000004_Node000005"><a xlink:title=" ">
<path fill="none" stroke="#63b8ff" d="M483.51,-712.26C505.15,-729.74 551.8,-765.51 596.25,-787 599.52,-788.58 602.9,-790.09 606.36,-791.52"/>
<polygon fill="#63b8ff" stroke="#63b8ff" points="604.88,-794.7 615.47,-795.07 607.42,-788.18 604.88,-794.7"/>
</a>
</g>
</g>
<!-- Node6 -->
<g id="Node000006" class="node">
<title>Node6</title>
<g id="a_Node000006"><a xlink:href="class_main_window.html#ac072a152cfe7652ccad3270ca10dd3c3" target="_top" xlink:title="Envia los umbrales de distancia configurados al MCU.">
<polygon fill="white" stroke="#666666" points="757.75,-778 596.25,-778 596.25,-758 757.75,-758 757.75,-778"/>
<text xml:space="preserve" text-anchor="middle" x="677" y="-764.5" font-family="Helvetica,sans-Serif" font-size="10.00">MainWindow::onApplyThresholds</text>
</a>
</g>
</g>
<!-- Node4&#45;&gt;Node6 -->
<g id="edge5_Node000004_Node000006" class="edge">
<title>Node4&#45;&gt;Node6</title>
<g id="a_edge5_Node000004_Node000006"><a xlink:title=" ">
<path fill="none" stroke="#63b8ff" d="M496.21,-712.49C521.24,-722.7 560.97,-738.22 596.25,-749 602.86,-751.02 609.83,-752.96 616.79,-754.77"/>
<polygon fill="#63b8ff" stroke="#63b8ff" points="615.64,-758.09 626.19,-757.14 617.35,-751.3 615.64,-758.09"/>
</a>
</g>
</g>
<!-- Node7 -->
<g id="Node000007" class="node">
<title>Node7</title>
<g id="a_Node000007"><a xlink:href="class_main_window.html#a25bb2e84541c2329e9f6db2bbbfe6f45" target="_top" xlink:title="Resetea los tiempos de arribo a los valores por defecto (2s/4s/6s).">
<polygon fill="white" stroke="#666666" points="750.25,-740 603.75,-740 603.75,-708 750.25,-708 750.25,-740"/>
<text xml:space="preserve" text-anchor="start" x="611.75" y="-726.5" font-family="Helvetica,sans-Serif" font-size="10.00">MainWindow::onResetDefault</text>
<text xml:space="preserve" text-anchor="middle" x="677" y="-714.5" font-family="Helvetica,sans-Serif" font-size="10.00">Times</text>
</a>
</g>
</g>
<!-- Node4&#45;&gt;Node7 -->
<g id="edge6_Node000004_Node000007" class="edge">
<title>Node4&#45;&gt;Node7</title>
<g id="a_edge6_Node000004_Node000007"><a xlink:title=" ">
<path fill="none" stroke="#63b8ff" d="M554.16,-710.92C566.64,-712.26 579.53,-713.64 592.03,-714.98"/>
<polygon fill="#63b8ff" stroke="#63b8ff" points="591.56,-718.45 601.88,-716.04 592.31,-711.49 591.56,-718.45"/>
</a>
</g>
</g>
<!-- Node8 -->
<g id="Node000008" class="node">
<title>Node8</title>
<g id="a_Node000008"><a xlink:href="class_main_window.html#a6d442443dc1a8b4939ecec8cd5dce904" target="_top" xlink:title="Inicia o detiene el modo calibracion en el MCU.">
<polygon fill="white" stroke="#666666" points="755.12,-690 598.88,-690 598.88,-670 755.12,-670 755.12,-690"/>
<text xml:space="preserve" text-anchor="middle" x="677" y="-676.5" font-family="Helvetica,sans-Serif" font-size="10.00">MainWindow::onStartCalibration</text>
</a>
</g>
</g>
<!-- Node4&#45;&gt;Node8 -->
<g id="edge7_Node000004_Node000008" class="edge">
<title>Node4&#45;&gt;Node8</title>
<g id="a_edge7_Node000004_Node000008"><a xlink:title=" ">
<path fill="none" stroke="#63b8ff" d="M554.16,-693.08C565.03,-691.92 576.2,-690.72 587.15,-689.54"/>
<polygon fill="#63b8ff" stroke="#63b8ff" points="587.4,-693.03 596.97,-688.49 586.65,-686.07 587.4,-693.03"/>
</a>
</g>
</g>
<!-- Node9 -->
<g id="Node000009" class="node">
<title>Node9</title>
<g id="a_Node000009"><a xlink:href="class_main_window.html#a6a6851ed81ac01eb23c642c836e63578" target="_top" xlink:title="Dispara un servo manualmente para test.">
<polygon fill="white" stroke="#666666" points="743.5,-652 610.5,-652 610.5,-632 743.5,-632 743.5,-652"/>
<text xml:space="preserve" text-anchor="middle" x="677" y="-638.5" font-family="Helvetica,sans-Serif" font-size="10.00">MainWindow::onTestServo</text>
</a>
</g>
</g>
<!-- Node4&#45;&gt;Node9 -->
<g id="edge8_Node000004_Node000009" class="edge">
<title>Node4&#45;&gt;Node9</title>
<g id="a_edge8_Node000004_Node000009"><a xlink:title=" ">
<path fill="none" stroke="#63b8ff" d="M500.74,-691.53C525.96,-682.79 563.25,-670.32 596.25,-661 603.34,-659 610.83,-657.03 618.27,-655.16"/>
<polygon fill="#63b8ff" stroke="#63b8ff" points="619.1,-658.56 627.97,-652.77 617.43,-651.76 619.1,-658.56"/>
</a>
</g>
</g>
<!-- Node11 -->
<g id="Node000011" class="node">
<title>Node11</title>
<g id="a_Node000011"><a xlink:href="class_main_window.html#a2e025786d732966072085d687d825e4c" target="_top" xlink:title="Envia la configuracion de tipos de caja y tiempos al MCU.">
<polygon fill="white" stroke="#666666" points="748.38,-614 605.62,-614 605.62,-582 748.38,-582 748.38,-614"/>
<text xml:space="preserve" text-anchor="start" x="613.62" y="-600.5" font-family="Helvetica,sans-Serif" font-size="10.00">MainWindow::onApplyOutput</text>
<text xml:space="preserve" text-anchor="middle" x="677" y="-588.5" font-family="Helvetica,sans-Serif" font-size="10.00">Config</text>
</a>
</g>
</g>
<!-- Node10&#45;&gt;Node11 -->
<g id="edge10_Node000010_Node000011" class="edge">
<title>Node10&#45;&gt;Node11</title>
<g id="a_edge10_Node000010_Node000011"><a xlink:title=" ">
<path fill="none" stroke="#63b8ff" d="M492.04,-526.49C516.61,-538.59 558.8,-558.66 596.25,-573 600.59,-574.66 605.1,-576.3 609.66,-577.9"/>
<polygon fill="#63b8ff" stroke="#63b8ff" points="608.32,-581.14 618.92,-581.04 610.58,-574.51 608.32,-581.14"/>
</a>
</g>
</g>
<!-- Node12 -->
<g id="Node000012" class="node">
<title>Node12</title>
<g id="a_Node000012"><a xlink:href="class_main_window.html#aed588a1ad2fc66f2d562cbdebc360434" target="_top" xlink:title="Resetea el sistema: envia CMD_RESET y limpia contadores locales.">
<polygon fill="white" stroke="#666666" points="734.5,-564 619.5,-564 619.5,-544 734.5,-544 734.5,-564"/>
<text xml:space="preserve" text-anchor="middle" x="677" y="-550.5" font-family="Helvetica,sans-Serif" font-size="10.00">MainWindow::onReset</text>
</a>
</g>
</g>
<!-- Node10&#45;&gt;Node12 -->
<g id="edge11_Node000010_Node000012" class="edge">
<title>Node10&#45;&gt;Node12</title>
<g id="a_edge11_Node000010_Node000012"><a xlink:title=" ">
<path fill="none" stroke="#63b8ff" d="M527.65,-526.48C552.73,-531.14 582.44,-536.65 608.66,-541.51"/>
<polygon fill="#63b8ff" stroke="#63b8ff" points="607.7,-544.89 618.17,-543.27 608.98,-538.01 607.7,-544.89"/>
</a>
</g>
</g>
<!-- Node13 -->
<g id="Node000013" class="node">
<title>Node13</title>
<g id="a_Node000013"><a xlink:href="class_main_window.html#a8b6ad2f7b2f4dc3de571d2be7f09c161" target="_top" xlink:title="Inicia la clasificacion: envia configuracion y CMD_START al MCU.">
<polygon fill="white" stroke="#666666" points="731.88,-526 622.12,-526 622.12,-506 731.88,-506 731.88,-526"/>
<text xml:space="preserve" text-anchor="middle" x="677" y="-512.5" font-family="Helvetica,sans-Serif" font-size="10.00">MainWindow::onStart</text>
</a>
</g>
</g>
<!-- Node10&#45;&gt;Node13 -->
<g id="edge12_Node000010_Node000013" class="edge">
<title>Node10&#45;&gt;Node13</title>
<g id="a_edge12_Node000010_Node000013"><a xlink:title=" ">
<path fill="none" stroke="#63b8ff" d="M560.69,-516C577.41,-516 594.6,-516 610.43,-516"/>
<polygon fill="#63b8ff" stroke="#63b8ff" points="610.18,-519.5 620.18,-516 610.18,-512.5 610.18,-519.5"/>
</a>
</g>
</g>
<!-- Node14 -->
<g id="Node000014" class="node">
<title>Node14</title>
<g id="a_Node000014"><a xlink:href="class_main_window.html#a3c2de388ebdb7b541c805eb50d540fe4" target="_top" xlink:title="Detiene la clasificacion: envia CMD_STOP al MCU.">
<polygon fill="white" stroke="#666666" points="731.5,-488 622.5,-488 622.5,-468 731.5,-468 731.5,-488"/>
<text xml:space="preserve" text-anchor="middle" x="677" y="-474.5" font-family="Helvetica,sans-Serif" font-size="10.00">MainWindow::onStop</text>
</a>
</g>
</g>
<!-- Node10&#45;&gt;Node14 -->
<g id="edge13_Node000010_Node000014" class="edge">
<title>Node10&#45;&gt;Node14</title>
<g id="a_edge13_Node000010_Node000014"><a xlink:title=" ">
<path fill="none" stroke="#63b8ff" d="M527.65,-505.52C553.46,-500.73 584.16,-495.03 610.93,-490.07"/>
<polygon fill="#63b8ff" stroke="#63b8ff" points="611.45,-493.53 620.64,-488.27 610.17,-486.65 611.45,-493.53"/>
</a>
</g>
</g>
<!-- Node15&#45;&gt;Node16 -->
<g id="edge15_Node000015_Node000016" class="edge">
<title>Node15&#45;&gt;Node16</title>
<g id="a_edge15_Node000015_Node000016"><a xlink:title=" ">
<path fill="none" stroke="#63b8ff" d="M527.65,-467.52C552.73,-462.86 582.44,-457.35 608.66,-452.49"/>
<polygon fill="#63b8ff" stroke="#63b8ff" points="608.98,-455.99 618.17,-450.73 607.7,-449.11 608.98,-455.99"/>
</a>
</g>
</g>
<!-- Node17&#45;&gt;Node18 -->
<g id="edge17_Node000017_Node000018" class="edge">
<title>Node17&#45;&gt;Node18</title>
<g id="a_edge17_Node000017_Node000018"><a xlink:title=" ">
<path fill="none" stroke="#63b8ff" d="M535.39,-396.04C553.35,-394.37 573.15,-392.54 592.07,-390.78"/>
<polygon fill="#63b8ff" stroke="#63b8ff" points="592.26,-394.28 601.89,-389.87 591.61,-387.31 592.26,-394.28"/>
</a>
</g>
</g>
<!-- Node25 -->
<g id="Node000025" class="node">
<title>Node25</title>
<g id="a_Node000025"><a xlink:href="class_main_window.html#a15eebf3d5aac3f47bbfe955428b6f64b" target="_top" xlink:title="Agrega un mensaje al log de comunicacion con timestamp.">
<polygon fill="white" stroke="#666666" points="515.62,-134 424.62,-134 424.62,-114 515.62,-114 515.62,-134"/>
<text xml:space="preserve" text-anchor="middle" x="470.12" y="-120.5" font-family="Helvetica,sans-Serif" font-size="10.00">MainWindow::log</text>
</a>
</g>
</g>
<!-- Node24&#45;&gt;Node25 -->
<g id="edge26_Node000024_Node000025" class="edge">
<title>Node24&#45;&gt;Node25</title>
<g id="a_edge26_Node000024_Node000025"><a xlink:title=" ">
<path fill="none" stroke="#63b8ff" d="M328.47,-124C356.02,-124 387.2,-124 413.19,-124"/>
<polygon fill="#63b8ff" stroke="#63b8ff" points="412.84,-127.5 422.84,-124 412.84,-120.5 412.84,-127.5"/>
</a>
</g>
</g>
</g>
</svg>

<g id="navigator" transform="translate(0 0)" fill="#404254">
  <rect fill="#f2f5e9" fill-opacity="0.5" stroke="#606060" stroke-width=".5" x="0" y="0" width="60" height="60"/>
  <use id="zoomplus" xlink:href="#zoomPlus" x="17" y="9" onmousedown="handleZoom(evt,'in')"/>
  <use id="zoomminus" xlink:href="#zoomMin" x="42" y="9" onmousedown="handleZoom(evt,'out')"/>
  <use id="reset" xlink:href="#resetDef" x="30" y="36" onmousedown="handleReset()"/>
   <use id="arrowup" xlink:href="#arrowUp" x="0" y="0" onmousedown="handlePan(0,-1)"/>
  <use id="arrowright" xlink:href="#arrowRight" x="0" y="0" onmousedown="handlePan(1,0)"/>
  <use id="arrowdown" xlink:href="#arrowDown" x="0" y="0" onmousedown="handlePan(0,1)"/>
  <use id="arrowleft" xlink:href="#arrowLeft" x="0" y="0" onmousedown="handlePan(-1,0)"/>
</g>
<svg viewBox="0 0 15 15" width="100%" height="30px" preserveAspectRatio="xMaxYMin meet">
 <g id="arrow_out" transform="scale(0.3 0.3)">
  <a xlink:href="class_main_window_a996c5a2b6f77944776856f08ec30858d_cgraph_org.svg" target="_base">
   <rect id="button" ry="5" rx="5" y="6" x="6" height="38" width="38"
        fill="#f2f5e9" fill-opacity="0.5" stroke="#606060" stroke-width="1.0"/>
   <path id="arrow"
     d="M 11.500037,31.436501 C 11.940474,20.09759 22.043105,11.32322 32.158766,21.979434 L 37.068811,17.246167 C 37.068811,17.246167 37.088388,32 37.088388,32 L 22.160133,31.978069 C 22.160133,31.978069 26.997745,27.140456 26.997745,27.140456 C 18.528582,18.264221 13.291696,25.230495 11.500037,31.436501 z"
     style="fill:#404040;"/>
  </a>
 </g>
</svg>

<style type='text/css'>
<![CDATA[
[data-mouse-over-selected='false'] { opacity: 0.7; }
[data-mouse-over-selected='true']  { opacity: 1.0; }
]]>
</style>
<script type="application/ecmascript"><![CDATA[
document.addEventListener('DOMContentLoaded', (event) => {
  highlightEdges();
  highlightAdjacentNodes();
});
]]></script>
</svg>
