<?xml version="1.0" encoding="UTF-8" standalone="no"?>
<!DOCTYPE svg PUBLIC "-//W3C//DTD SVG 1.1//EN"
 "http://www.w3.org/Graphics/SVG/1.1/DTD/svg11.dtd">
<!-- Generated by graphviz version 14.1.5 (20260411.2331)
 -->
<!-- Title: MainWindow::onApplyThresholds Pages: 1 -->
<svg width="688pt" height="28pt"
 viewBox="0.00 0.00 688.00 28.00" xmlns="http://www.w3.org/2000/svg" xmlns:xlink="http://www.w3.org/1999/xlink">
<g id="graph0" class="graph" transform="scale(1 1) rotate(0) translate(4 24)">
<title>MainWindow::onApplyThresholds</title>
<!-- Node1 -->
<g id="Node000001" class="node">
<title>Node1</title>
<g id="a_Node000001"><a xlink:title="Envia los umbrales de distancia configurados al MCU.">
<polygon fill="#999999" stroke="#666666" points="679.75,-20 518.25,-20 518.25,0 679.75,0 679.75,-20"/>
<text xml:space="preserve" text-anchor="middle" x="599" y="-6.5" font-family="Helvetica,sans-Serif" font-size="10.00">MainWindow::onApplyThresholds</text>
</a>
</g>
</g>
<!-- Node2 -->
<g id="Node000002" class="node">
<title>Node2</title>
<g id="a_Node000002"><a xlink:href="class_main_window.html#a2ce2d016528e5a22bc5556c7ab9e58c2" target="_top" xlink:title="Construye la pagina de Calibracion.">
<polygon fill="white" stroke="#666666" points="482.25,-20 314.75,-20 314.75,0 482.25,0 482.25,-20"/>
<text xml:space="preserve" text-anchor="middle" x="398.5" y="-6.5" font-family="Helvetica,sans-Serif" font-size="10.00">MainWindow::buildCalibrationPage</text>
</a>
</g>
</g>
<!-- Node1&#45;&gt;Node2 -->
<g id="edge1_Node000001_Node000002" class="edge">
<title>Node1&#45;&gt;Node2</title>
<g id="a_edge1_Node000001_Node000002"><a xlink:title=" ">
<path fill="none" stroke="#63b8ff" d="M506.58,-10C498.57,-10 490.49,-10 482.55,-10"/>
<polygon fill="#63b8ff" stroke="#63b8ff" points="506.32,-13.5 516.32,-10 506.32,-6.5 506.32,-13.5"/>
</a>
</g>
</g>
<!-- Node3 -->
<g id="Node000003" class="node">
<title>Node3</title>
<g id="a_Node000003"><a xlink:href="class_main_window.html#afe1bceaad866b6fed583ba83245ae195" target="_top" xlink:title="Construye todos los widgets de la interfaz.">
<polygon fill="white" stroke="#666666" points="278.75,-20 170.5,-20 170.5,0 278.75,0 278.75,-20"/>
<text xml:space="preserve" text-anchor="middle" x="224.62" y="-6.5" font-family="Helvetica,sans-Serif" font-size="10.00">MainWindow::buildUi</text>
</a>
</g>
</g>
<!-- Node2&#45;&gt;Node3 -->
<g id="edge2_Node000002_Node000003" class="edge">
<title>Node2&#45;&gt;Node3</title>
<g id="a_edge2_Node000002_Node000003"><a xlink:title=" ">
<path fill="none" stroke="#63b8ff" d="M303.09,-10C294.88,-10 286.77,-10 279.06,-10"/>
<polygon fill="#63b8ff" stroke="#63b8ff" points="302.82,-13.5 312.82,-10 302.82,-6.5 302.82,-13.5"/>
</a>
</g>
</g>
<!-- Node4 -->
<g id="Node000004" class="node">
<title>Node4</title>
<g id="a_Node000004"><a xlink:href="class_main_window.html#a996c5a2b6f77944776856f08ec30858d" target="_top" xlink:title="Constructor. Construye la UI, aplica estilos y conecta senales.">
<polygon fill="white" stroke="#666666" points="134.5,-20 0,-20 0,0 134.5,0 134.5,-20"/>
<text xml:space="preserve" text-anchor="middle" x="67.25" y="-6.5" font-family="Helvetica,sans-Serif" font-size="10.00">MainWindow::MainWindow</text>
</a>
</g>
</g>
<!-- Node3&#45;&gt;Node4 -->
<g id="edge3_Node000003_Node000004" class="edge">
<title>Node3&#45;&gt;Node4</title>
<g id="a_edge3_Node000003_Node000004"><a xlink:title=" ">
<path fill="none" stroke="#63b8ff" d="M158.8,-10C150.93,-10 142.89,-10 135,-10"/>
<polygon fill="#63b8ff" stroke="#63b8ff" points="158.64,-13.5 168.64,-10 158.64,-6.5 158.64,-13.5"/>
</a>
</g>
</g>
</g>
</svg>
