<?xml version="1.0" encoding="UTF-8" standalone="no"?>
<!DOCTYPE svg PUBLIC "-//W3C//DTD SVG 1.1//EN"
 "http://www.w3.org/Graphics/SVG/1.1/DTD/svg11.dtd">
<!-- Generated by graphviz version 14.1.5 (20260411.2331)
 -->
<!-- Title: MainWindow::setPage Pages: 1 -->
<svg width="605pt" height="47pt"
 viewBox="0.00 0.00 605.00 47.00" xmlns="http://www.w3.org/2000/svg" xmlns:xlink="http://www.w3.org/1999/xlink">
<g id="graph0" class="graph" transform="scale(1 1) rotate(0) translate(4 43)">
<title>MainWindow::setPage</title>
<!-- Node1 -->
<g id="Node000001" class="node">
<title>Node1</title>
<g id="a_Node000001"><a xlink:title="Cambia la pagina visible en el area central.">
<polygon fill="#999999" stroke="#666666" points="596.5,-20 482.25,-20 482.25,0 596.5,0 596.5,-20"/>
<text xml:space="preserve" text-anchor="middle" x="539.38" y="-6.5" font-family="Helvetica,sans-Serif" font-size="10.00">MainWindow::setPage</text>
</a>
</g>
</g>
<!-- Node2 -->
<g id="Node000002" class="node">
<title>Node2</title>
<g id="a_Node000002"><a xlink:href="class_main_window.html#a0531fa9a3d2a53bacd3923ea4d4cef5a" target="_top" xlink:title="Construye el panel lateral de navegacion.">
<polygon fill="white" stroke="#666666" points="446.25,-39 314.75,-39 314.75,-19 446.25,-19 446.25,-39"/>
<text xml:space="preserve" text-anchor="middle" x="380.5" y="-25.5" font-family="Helvetica,sans-Serif" font-size="10.00">MainWindow::buildSidebar</text>
</a>
</g>
</g>
<!-- Node1&#45;&gt;Node2 -->
<g id="edge1_Node000001_Node000002" class="edge">
<title>Node1&#45;&gt;Node2</title>
<g id="a_edge1_Node000001_Node000002"><a xlink:title=" ">
<path fill="none" stroke="#63b8ff" d="M470.94,-18.17C462.88,-19.14 454.67,-20.14 446.65,-21.11"/>
<polygon fill="#63b8ff" stroke="#63b8ff" points="471.17,-21.66 480.68,-16.99 470.33,-14.72 471.17,-21.66"/>
</a>
</g>
</g>
<!-- Node3 -->
<g id="Node000003" class="node">
<title>Node3</title>
<g id="a_Node000003"><a xlink:href="class_main_window.html#afe1bceaad866b6fed583ba83245ae195" target="_top" xlink:title="Construye todos los widgets de la interfaz.">
<polygon fill="white" stroke="#666666" points="278.75,-20 170.5,-20 170.5,0 278.75,0 278.75,-20"/>
<text xml:space="preserve" text-anchor="middle" x="224.62" y="-6.5" font-family="Helvetica,sans-Serif" font-size="10.00">MainWindow::buildUi</text>
</a>
</g>
</g>
<!-- Node1&#45;&gt;Node3 -->
<g id="edge4_Node000001_Node000003" class="edge">
<title>Node1&#45;&gt;Node3</title>
<g id="a_edge4_Node000001_Node000003"><a xlink:title=" ">
<path fill="none" stroke="#63b8ff" d="M470.59,-10C413.19,-10 332.01,-10 279.1,-10"/>
<polygon fill="#63b8ff" stroke="#63b8ff" points="470.59,-13.5 480.59,-10 470.59,-6.5 470.59,-13.5"/>
</a>
</g>
</g>
<!-- Node2&#45;&gt;Node3 -->
<g id="edge2_Node000002_Node000003" class="edge">
<title>Node2&#45;&gt;Node3</title>
<g id="a_edge2_Node000002_Node000003"><a xlink:title=" ">
<path fill="none" stroke="#63b8ff" d="M303.52,-19.62C295.3,-18.6 287.06,-17.59 279.19,-16.61"/>
<polygon fill="#63b8ff" stroke="#63b8ff" points="302.83,-23.06 313.19,-20.81 303.69,-16.11 302.83,-23.06"/>
</a>
</g>
</g>
<!-- Node4 -->
<g id="Node000004" class="node">
<title>Node4</title>
<g id="a_Node000004"><a xlink:href="class_main_window.html#a996c5a2b6f77944776856f08ec30858d" target="_top" xlink:title="Constructor. Construye la UI, aplica estilos y conecta senales.">
<polygon fill="white" stroke="#666666" points="134.5,-20 0,-20 0,0 134.5,0 134.5,-20"/>
<text xml:space="preserve" text-anchor="middle" x="67.25" y="-6.5" font-family="Helvetica,sans-Serif" font-size="10.00">MainWindow::MainWindow</text>
</a>
</g>
</g>
<!-- Node3&#45;&gt;Node4 -->
<g id="edge3_Node000003_Node000004" class="edge">
<title>Node3&#45;&gt;Node4</title>
<g id="a_edge3_Node000003_Node000004"><a xlink:title=" ">
<path fill="none" stroke="#63b8ff" d="M158.8,-10C150.93,-10 142.89,-10 135,-10"/>
<polygon fill="#63b8ff" stroke="#63b8ff" points="158.64,-13.5 168.64,-10 158.64,-6.5 158.64,-13.5"/>
</a>
</g>
</g>
</g>
</svg>
