<?xml version="1.0" encoding="UTF-8" standalone="no"?>
<!DOCTYPE svg PUBLIC "-//W3C//DTD SVG 1.1//EN"
 "http://www.w3.org/Graphics/SVG/1.1/DTD/svg11.dtd">
<!-- Generated by graphviz version 14.1.5 (20260411.2331)
 -->
<!-- Title: MainWindow::onApplyOutputConfig Pages: 1 -->
<svg width="682pt" height="40pt"
 viewBox="0.00 0.00 682.00 40.00" xmlns="http://www.w3.org/2000/svg" xmlns:xlink="http://www.w3.org/1999/xlink">
<g id="graph0" class="graph" transform="scale(1 1) rotate(0) translate(4 36)">
<title>MainWindow::onApplyOutputConfig</title>
<!-- Node1 -->
<g id="Node000001" class="node">
<title>Node1</title>
<g id="a_Node000001"><a xlink:title="Envia la configuracion de tipos de caja y tiempos al MCU.">
<polygon fill="#999999" stroke="#666666" points="673.75,-32 531,-32 531,0 673.75,0 673.75,-32"/>
<text xml:space="preserve" text-anchor="start" x="539" y="-18.5" font-family="Helvetica,sans-Serif" font-size="10.00">MainWindow::onApplyOutput</text>
<text xml:space="preserve" text-anchor="middle" x="602.38" y="-6.5" font-family="Helvetica,sans-Serif" font-size="10.00">Config</text>
</a>
</g>
</g>
<!-- Node2 -->
<g id="Node000002" class="node">
<title>Node2</title>
<g id="a_Node000002"><a xlink:href="class_main_window.html#abf4c329af69c176000bf54106dfab198" target="_top" xlink:title="Construye la pagina de Clasificacion.">
<polygon fill="white" stroke="#666666" points="495,-26 314.75,-26 314.75,-6 495,-6 495,-26"/>
<text xml:space="preserve" text-anchor="middle" x="404.88" y="-12.5" font-family="Helvetica,sans-Serif" font-size="10.00">MainWindow::buildClassificationPage</text>
</a>
</g>
</g>
<!-- Node1&#45;&gt;Node2 -->
<g id="edge1_Node000001_Node000002" class="edge">
<title>Node1&#45;&gt;Node2</title>
<g id="a_edge1_Node000001_Node000002"><a xlink:title=" ">
<path fill="none" stroke="#63b8ff" d="M519.08,-16C511.18,-16 503.15,-16 495.19,-16"/>
<polygon fill="#63b8ff" stroke="#63b8ff" points="519.01,-19.5 529.01,-16 519.01,-12.5 519.01,-19.5"/>
</a>
</g>
</g>
<!-- Node3 -->
<g id="Node000003" class="node">
<title>Node3</title>
<g id="a_Node000003"><a xlink:href="class_main_window.html#afe1bceaad866b6fed583ba83245ae195" target="_top" xlink:title="Construye todos los widgets de la interfaz.">
<polygon fill="white" stroke="#666666" points="278.75,-26 170.5,-26 170.5,-6 278.75,-6 278.75,-26"/>
<text xml:space="preserve" text-anchor="middle" x="224.62" y="-12.5" font-family="Helvetica,sans-Serif" font-size="10.00">MainWindow::buildUi</text>
</a>
</g>
</g>
<!-- Node2&#45;&gt;Node3 -->
<g id="edge2_Node000002_Node000003" class="edge">
<title>Node2&#45;&gt;Node3</title>
<g id="a_edge2_Node000002_Node000003"><a xlink:title=" ">
<path fill="none" stroke="#63b8ff" d="M303.12,-16C294.82,-16 286.66,-16 278.93,-16"/>
<polygon fill="#63b8ff" stroke="#63b8ff" points="302.98,-19.5 312.98,-16 302.98,-12.5 302.98,-19.5"/>
</a>
</g>
</g>
<!-- Node4 -->
<g id="Node000004" class="node">
<title>Node4</title>
<g id="a_Node000004"><a xlink:href="class_main_window.html#a996c5a2b6f77944776856f08ec30858d" target="_top" xlink:title="Constructor. Construye la UI, aplica estilos y conecta senales.">
<polygon fill="white" stroke="#666666" points="134.5,-26 0,-26 0,-6 134.5,-6 134.5,-26"/>
<text xml:space="preserve" text-anchor="middle" x="67.25" y="-12.5" font-family="Helvetica,sans-Serif" font-size="10.00">MainWindow::MainWindow</text>
</a>
</g>
</g>
<!-- Node3&#45;&gt;Node4 -->
<g id="edge3_Node000003_Node000004" class="edge">
<title>Node3&#45;&gt;Node4</title>
<g id="a_edge3_Node000003_Node000004"><a xlink:title=" ">
<path fill="none" stroke="#63b8ff" d="M158.8,-16C150.93,-16 142.89,-16 135,-16"/>
<polygon fill="#63b8ff" stroke="#63b8ff" points="158.64,-19.5 168.64,-16 158.64,-12.5 158.64,-19.5"/>
</a>
</g>
</g>
</g>
</svg>
