<?xml version="1.0" encoding="UTF-8" standalone="no"?>
<!DOCTYPE svg PUBLIC "-//W3C//DTD SVG 1.1//EN"
 "http://www.w3.org/Graphics/SVG/1.1/DTD/svg11.dtd">
<!-- Generated by graphviz version 14.1.5 (20260411.2331)
 -->
<!-- Title: mainwindow.cpp Pages: 1 -->
<!--zoomable 252 -->

<svg id="main" version="1.1" xmlns="http://www.w3.org/2000/svg" xmlns:xlink="http://www.w3.org/1999/xlink" xml:space="preserve" onload="init(evt)">

<style type="text/css"><![CDATA[
.node, .edge {opacity: 0.7;}
.node.selected, .edge.selected {opacity: 1;}
.edge:hover path { stroke: red; }
.edge:hover polygon { stroke: red; fill: red; }
]]></style>

<defs>
  <circle id="rim" cx="0" cy="0" r="7"/>
  <circle id="rim2" cx="0" cy="0" r="3.5"/>
  <g id="zoomPlus">
    <use xlink:href="#rim" fill="#404040"><set attributeName="fill" to="#808080" begin="zoomplus.mouseover" end="zoomplus.mouseout"/></use>
    <path d="M-4,0h8M0,-4v8" fill="none" stroke="white" stroke-width="1.5" pointer-events="none"/>
  </g>
  <g id="zoomMin">
    <use xlink:href="#rim" fill="#404040"><set attributeName="fill" to="#808080" begin="zoomminus.mouseover" end="zoomminus.mouseout"/></use>
    <path d="M-4,0h8" fill="none" stroke="white" stroke-width="1.5" pointer-events="none"/>
  </g>
  <g id="arrowUp" transform="translate(30 24)">
    <use xlink:href="#rim"/>
    <path pointer-events="none" fill="none" stroke="white" stroke-width="1.5" d="M0,-3.0v7 M-2.5,-0.5L0,-3.0L2.5,-0.5"/>
  </g>
  <g id="arrowRight" transform="rotate(90) translate(36 -43)">
    <use xlink:href="#rim"/>
    <path pointer-events="none" fill="none" stroke="white" stroke-width="1.5" d="M0,-3.0v7 M-2.5,-0.5L0,-3.0L2.5,-0.5"/>
  </g>
  <g id="arrowDown" transform="rotate(180) translate(-30 -48)">
    <use xlink:href="#rim"/>
    <path pointer-events="none" fill="none" stroke="white" stroke-width="1.5" d="M0,-3.0v7 M-2.5,-0.5L0,-3.0L2.5,-0.5"/>
  </g>
  <g id="arrowLeft" transform="rotate(270) translate(-36 17)">
    <use xlink:href="#rim"/>
    <path pointer-events="none" fill="none" stroke="white" stroke-width="1.5" d="M0,-3.0v7 M-2.5,-0.5L0,-3.0L2.5,-0.5"/>
  </g>
  <g id="resetDef">
    <use xlink:href="#rim2" fill="#404040"><set attributeName="fill" to="#808080" begin="reset.mouseover" end="reset.mouseout"/></use>
  </g>
</defs>
<script type="application/ecmascript">
var viewWidth = 1566;
var viewHeight = 252;
var sectionId = 'dynsection-0';
</script>
<script type="application/ecmascript" xlink:href="svg.min.js"/>
<svg id="graph" class="graph">
<g id="viewport">
<title>mainwindow.cpp</title>
<!-- Node1 -->
<g id="Node000001" class="node">
<title>Node1</title>
<g id="a_Node000001"><a xlink:title="Implementacion de la ventana principal del HMI.">
<polygon fill="#999999" stroke="#666666" points="1150.88,-244 1062.88,-244 1062.88,-224 1150.88,-224 1150.88,-244"/>
<text xml:space="preserve" text-anchor="middle" x="1106.88" y="-230.5" font-family="Helvetica,sans-Serif" font-size="10.00">mainwindow.cpp</text>
</a>
</g>
</g>
<!-- Node2 -->
<g id="Node000002" class="node">
<title>Node2</title>
<g id="a_Node000002"><a xlink:href="mainwindow_8h.html" target="_top" xlink:title="Ventana principal del HMI para la cinta clasificadora.">
<polygon fill="white" stroke="#666666" points="637.62,-188 560.12,-188 560.12,-168 637.62,-168 637.62,-188"/>
<text xml:space="preserve" text-anchor="middle" x="598.88" y="-174.5" font-family="Helvetica,sans-Serif" font-size="10.00">mainwindow.h</text>
</a>
</g>
</g>
<!-- Node1&#45;&gt;Node2 -->
<g id="edge1_Node000001_Node000002" class="edge">
<title>Node1&#45;&gt;Node2</title>
<g id="a_edge1_Node000001_Node000002"><a xlink:title=" ">
<path fill="none" stroke="#63b8ff" d="M1062.64,-229.97C982.39,-224.2 807.27,-210.3 649.45,-188.25"/>
<polygon fill="#63b8ff" stroke="#63b8ff" points="650.01,-184.8 639.62,-186.86 649.03,-191.73 650.01,-184.8"/>
</a>
</g>
</g>
<!-- Node21 -->
<g id="Node000021" class="node">
<title>Node21</title>
<g id="a_Node000021"><a xlink:title=" ">
<polygon fill="#e0e0e0" stroke="#999999" points="733.62,-188 656.12,-188 656.12,-168 733.62,-168 733.62,-188"/>
<text xml:space="preserve" text-anchor="middle" x="694.88" y="-174.5" font-family="Helvetica,sans-Serif" font-size="10.00">QHBoxLayout</text>
</a>
</g>
</g>
<!-- Node1&#45;&gt;Node21 -->
<g id="edge22_Node000001_Node000021" class="edge">
<title>Node1&#45;&gt;Node21</title>
<g id="a_edge22_Node000001_Node000021"><a xlink:title=" ">
<path fill="none" stroke="#63b8ff" d="M1062.49,-228.41C995.88,-221.34 865.88,-206.76 745.15,-188.27"/>
<polygon fill="#63b8ff" stroke="#63b8ff" points="745.79,-184.82 735.37,-186.75 744.72,-191.74 745.79,-184.82"/>
</a>
</g>
</g>
<!-- Node22 -->
<g id="Node000022" class="node">
<title>Node22</title>
<g id="a_Node000022"><a xlink:title=" ">
<polygon fill="#e0e0e0" stroke="#999999" points="828.25,-188 751.5,-188 751.5,-168 828.25,-168 828.25,-188"/>
<text xml:space="preserve" text-anchor="middle" x="789.88" y="-174.5" font-family="Helvetica,sans-Serif" font-size="10.00">QVBoxLayout</text>
</a>
</g>
</g>
<!-- Node1&#45;&gt;Node22 -->
<g id="edge23_Node000001_Node000022" class="edge">
<title>Node1&#45;&gt;Node22</title>
<g id="a_edge23_Node000001_Node000022"><a xlink:title=" ">
<path fill="none" stroke="#63b8ff" d="M1062.56,-225.86C1011.45,-217.56 924.58,-203.28 839.77,-188.31"/>
<polygon fill="#63b8ff" stroke="#63b8ff" points="840.58,-184.9 830.13,-186.6 839.36,-191.79 840.58,-184.9"/>
</a>
</g>
</g>
<!-- Node23 -->
<g id="Node000023" class="node">
<title>Node23</title>
<g id="a_Node000023"><a xlink:title=" ">
<polygon fill="#e0e0e0" stroke="#999999" points="917.25,-188 846.5,-188 846.5,-168 917.25,-168 917.25,-188"/>
<text xml:space="preserve" text-anchor="middle" x="881.88" y="-174.5" font-family="Helvetica,sans-Serif" font-size="10.00">QGridLayout</text>
</a>
</g>
</g>
<!-- Node1&#45;&gt;Node23 -->
<g id="edge24_Node000001_Node000023" class="edge">
<title>Node1&#45;&gt;Node23</title>
<g id="a_edge24_Node000001_Node000023"><a xlink:title=" ">
<path fill="none" stroke="#63b8ff" d="M1067.43,-223.53C1028.72,-214.24 969.68,-200.07 928.63,-190.22"/>
<polygon fill="#63b8ff" stroke="#63b8ff" points="929.58,-186.85 919.04,-187.92 927.94,-193.66 929.58,-186.85"/>
</a>
</g>
</g>
<!-- Node24 -->
<g id="Node000024" class="node">
<title>Node24</title>
<g id="a_Node000024"><a xlink:title=" ">
<polygon fill="#e0e0e0" stroke="#999999" points="1002.38,-188 935.38,-188 935.38,-168 1002.38,-168 1002.38,-188"/>
<text xml:space="preserve" text-anchor="middle" x="968.88" y="-174.5" font-family="Helvetica,sans-Serif" font-size="10.00">QGroupBox</text>
</a>
</g>
</g>
<!-- Node1&#45;&gt;Node24 -->
<g id="edge25_Node000001_Node000024" class="edge">
<title>Node1&#45;&gt;Node24</title>
<g id="a_edge25_Node000001_Node000024"><a xlink:title=" ">
<path fill="none" stroke="#63b8ff" d="M1082.84,-223.59C1060.91,-215.01 1028.25,-202.23 1003.5,-192.55"/>
<polygon fill="#63b8ff" stroke="#63b8ff" points="1005.1,-189.42 994.51,-189.03 1002.55,-195.93 1005.1,-189.42"/>
</a>
</g>
</g>
<!-- Node25 -->
<g id="Node000025" class="node">
<title>Node25</title>
<g id="a_Node000025"><a xlink:title=" ">
<polygon fill="#e0e0e0" stroke="#999999" points="1097.25,-188 1020.5,-188 1020.5,-168 1097.25,-168 1097.25,-188"/>
<text xml:space="preserve" text-anchor="middle" x="1058.88" y="-174.5" font-family="Helvetica,sans-Serif" font-size="10.00">QHeaderView</text>
</a>
</g>
</g>
<!-- Node1&#45;&gt;Node25 -->
<g id="edge26_Node000001_Node000025" class="edge">
<title>Node1&#45;&gt;Node25</title>
<g id="a_edge26_Node000001_Node000025"><a xlink:title=" ">
<path fill="none" stroke="#63b8ff" d="M1098.51,-223.59C1091.98,-216.24 1082.69,-205.8 1074.76,-196.87"/>
<polygon fill="#63b8ff" stroke="#63b8ff" points="1077.41,-194.58 1068.15,-189.43 1072.17,-199.23 1077.41,-194.58"/>
</a>
</g>
</g>
<!-- Node26 -->
<g id="Node000026" class="node">
<title>Node26</title>
<g id="a_Node000026"><a xlink:title=" ">
<polygon fill="#e0e0e0" stroke="#999999" points="1196.12,-188 1115.62,-188 1115.62,-168 1196.12,-168 1196.12,-188"/>
<text xml:space="preserve" text-anchor="middle" x="1155.88" y="-174.5" font-family="Helvetica,sans-Serif" font-size="10.00">QMessageBox</text>
</a>
</g>
</g>
<!-- Node1&#45;&gt;Node26 -->
<g id="edge27_Node000001_Node000026" class="edge">
<title>Node1&#45;&gt;Node26</title>
<g id="a_edge27_Node000001_Node000026"><a xlink:title=" ">
<path fill="none" stroke="#63b8ff" d="M1115.41,-223.59C1122.16,-216.16 1131.76,-205.58 1139.92,-196.58"/>
<polygon fill="#63b8ff" stroke="#63b8ff" points="1142.29,-199.18 1146.42,-189.42 1137.11,-194.47 1142.29,-199.18"/>
</a>
</g>
</g>
<!-- Node27 -->
<g id="Node000027" class="node">
<title>Node27</title>
<g id="a_Node000027"><a xlink:title=" ">
<polygon fill="#e0e0e0" stroke="#999999" points="1283.12,-188 1214.62,-188 1214.62,-168 1283.12,-168 1283.12,-188"/>
<text xml:space="preserve" text-anchor="middle" x="1248.88" y="-174.5" font-family="Helvetica,sans-Serif" font-size="10.00">QScrollArea</text>
</a>
</g>
</g>
<!-- Node1&#45;&gt;Node27 -->
<g id="edge28_Node000001_Node000027" class="edge">
<title>Node1&#45;&gt;Node27</title>
<g id="a_edge28_Node000001_Node000027"><a xlink:title=" ">
<path fill="none" stroke="#63b8ff" d="M1131.61,-223.59C1154.17,-215.01 1187.78,-202.23 1213.24,-192.55"/>
<polygon fill="#63b8ff" stroke="#63b8ff" points="1214.43,-195.84 1222.53,-189.02 1211.94,-189.3 1214.43,-195.84"/>
</a>
</g>
</g>
<!-- Node28 -->
<g id="Node000028" class="node">
<title>Node28</title>
<g id="a_Node000028"><a xlink:title=" ">
<polygon fill="#e0e0e0" stroke="#999999" points="1352.5,-188 1301.25,-188 1301.25,-168 1352.5,-168 1352.5,-188"/>
<text xml:space="preserve" text-anchor="middle" x="1326.88" y="-174.5" font-family="Helvetica,sans-Serif" font-size="10.00">QFrame</text>
</a>
</g>
</g>
<!-- Node1&#45;&gt;Node28 -->
<g id="edge29_Node000001_Node000028" class="edge">
<title>Node1&#45;&gt;Node28</title>
<g id="a_edge29_Node000001_Node000028"><a xlink:title=" ">
<path fill="none" stroke="#63b8ff" d="M1146.25,-223.58C1181.38,-215.14 1234.53,-202.29 1289.81,-188.49"/>
<polygon fill="#63b8ff" stroke="#63b8ff" points="1290.57,-191.91 1299.42,-186.09 1288.87,-185.12 1290.57,-191.91"/>
</a>
</g>
</g>
<!-- Node29 -->
<g id="Node000029" class="node">
<title>Node29</title>
<g id="a_Node000029"><a xlink:title=" ">
<polygon fill="#e0e0e0" stroke="#999999" points="1413.38,-188 1370.38,-188 1370.38,-168 1413.38,-168 1413.38,-188"/>
<text xml:space="preserve" text-anchor="middle" x="1391.88" y="-174.5" font-family="Helvetica,sans-Serif" font-size="10.00">QFont</text>
</a>
</g>
</g>
<!-- Node1&#45;&gt;Node29 -->
<g id="edge30_Node000001_Node000029" class="edge">
<title>Node1&#45;&gt;Node29</title>
<g id="a_edge30_Node000001_Node000029"><a xlink:title=" ">
<path fill="none" stroke="#63b8ff" d="M1150.96,-226.82C1199.76,-219.63 1280.91,-206.63 1359,-188.48"/>
<polygon fill="#63b8ff" stroke="#63b8ff" points="1359.6,-191.94 1368.53,-186.23 1357.99,-185.12 1359.6,-191.94"/>
</a>
</g>
</g>
<!-- Node30 -->
<g id="Node000030" class="node">
<title>Node30</title>
<g id="a_Node000030"><a xlink:title=" ">
<polygon fill="#e0e0e0" stroke="#999999" points="1476.5,-188 1431.25,-188 1431.25,-168 1476.5,-168 1476.5,-188"/>
<text xml:space="preserve" text-anchor="middle" x="1453.88" y="-174.5" font-family="Helvetica,sans-Serif" font-size="10.00">QTime</text>
</a>
</g>
</g>
<!-- Node1&#45;&gt;Node30 -->
<g id="edge31_Node000001_Node000030" class="edge">
<title>Node1&#45;&gt;Node30</title>
<g id="a_edge31_Node000001_Node000030"><a xlink:title=" ">
<path fill="none" stroke="#63b8ff" d="M1151.19,-228.69C1210.47,-222.48 1319.01,-209.59 1419.94,-188.4"/>
<polygon fill="#63b8ff" stroke="#63b8ff" points="1420.42,-191.88 1429.46,-186.36 1418.95,-185.03 1420.42,-191.88"/>
</a>
</g>
</g>
<!-- Node31 -->
<g id="Node000031" class="node">
<title>Node31</title>
<g id="a_Node000031"><a xlink:title=" ">
<polygon fill="#e0e0e0" stroke="#999999" points="1557.5,-188 1494.25,-188 1494.25,-168 1557.5,-168 1557.5,-188"/>
<text xml:space="preserve" text-anchor="middle" x="1525.88" y="-174.5" font-family="Helvetica,sans-Serif" font-size="10.00">QScrollBar</text>
</a>
</g>
</g>
<!-- Node1&#45;&gt;Node31 -->
<g id="edge32_Node000001_Node000031" class="edge">
<title>Node1&#45;&gt;Node31</title>
<g id="a_edge32_Node000001_Node000031"><a xlink:title=" ">
<path fill="none" stroke="#63b8ff" d="M1151.14,-229.24C1220.02,-223.06 1357.2,-209.45 1482.73,-188.4"/>
<polygon fill="#63b8ff" stroke="#63b8ff" points="1483.29,-191.85 1492.57,-186.72 1482.12,-184.95 1483.29,-191.85"/>
</a>
</g>
</g>
<!-- Node3 -->
<g id="Node000003" class="node">
<title>Node3</title>
<g id="a_Node000003"><a xlink:title=" ">
<polygon fill="#e0e0e0" stroke="#999999" points="79.75,-132 0,-132 0,-112 79.75,-112 79.75,-132"/>
<text xml:space="preserve" text-anchor="middle" x="39.88" y="-118.5" font-family="Helvetica,sans-Serif" font-size="10.00">QMainWindow</text>
</a>
</g>
</g>
<!-- Node2&#45;&gt;Node3 -->
<g id="edge2_Node000002_Node000003" class="edge">
<title>Node2&#45;&gt;Node3</title>
<g id="a_edge2_Node000002_Node000003"><a xlink:title=" ">
<path fill="none" stroke="#63b8ff" d="M559.71,-174.8C475.8,-169.81 272.29,-156.29 91.53,-132.24"/>
<polygon fill="#63b8ff" stroke="#63b8ff" points="92.08,-128.78 81.7,-130.92 91.15,-135.72 92.08,-128.78"/>
</a>
</g>
</g>
<!-- Node4 -->
<g id="Node000004" class="node">
<title>Node4</title>
<g id="a_Node000004"><a xlink:title=" ">
<polygon fill="#e0e0e0" stroke="#999999" points="188,-132 97.75,-132 97.75,-112 188,-112 188,-132"/>
<text xml:space="preserve" text-anchor="middle" x="142.88" y="-118.5" font-family="Helvetica,sans-Serif" font-size="10.00">QStackedWidget</text>
</a>
</g>
</g>
<!-- Node2&#45;&gt;Node4 -->
<g id="edge3_Node000002_Node000004" class="edge">
<title>Node2&#45;&gt;Node4</title>
<g id="a_edge3_Node000002_Node000004"><a xlink:title=" ">
<path fill="none" stroke="#63b8ff" d="M559.7,-173.32C489.6,-166.58 337.83,-151.3 199.43,-132.29"/>
<polygon fill="#63b8ff" stroke="#63b8ff" points="200.11,-128.85 189.72,-130.95 199.15,-135.79 200.11,-128.85"/>
</a>
</g>
</g>
<!-- Node5 -->
<g id="Node000005" class="node">
<title>Node5</title>
<g id="a_Node000005"><a xlink:title=" ">
<polygon fill="#e0e0e0" stroke="#999999" points="280.12,-132 205.62,-132 205.62,-112 280.12,-112 280.12,-132"/>
<text xml:space="preserve" text-anchor="middle" x="242.88" y="-118.5" font-family="Helvetica,sans-Serif" font-size="10.00">QPushButton</text>
</a>
</g>
</g>
<!-- Node2&#45;&gt;Node5 -->
<g id="edge4_Node000002_Node000005" class="edge">
<title>Node2&#45;&gt;Node5</title>
<g id="a_edge4_Node000002_Node000005"><a xlink:title=" ">
<path fill="none" stroke="#63b8ff" d="M559.63,-171.93C502.77,-164.45 393.91,-149.62 291.65,-132.41"/>
<polygon fill="#63b8ff" stroke="#63b8ff" points="292.44,-128.99 282,-130.77 291.27,-135.89 292.44,-128.99"/>
</a>
</g>
</g>
<!-- Node6 -->
<g id="Node000006" class="node">
<title>Node6</title>
<g id="a_Node000006"><a xlink:title=" ">
<polygon fill="#e0e0e0" stroke="#999999" points="370,-132 297.75,-132 297.75,-112 370,-112 370,-132"/>
<text xml:space="preserve" text-anchor="middle" x="333.88" y="-118.5" font-family="Helvetica,sans-Serif" font-size="10.00">QComboBox</text>
</a>
</g>
</g>
<!-- Node2&#45;&gt;Node6 -->
<g id="edge5_Node000002_Node000006" class="edge">
<title>Node2&#45;&gt;Node6</title>
<g id="a_edge5_Node000002_Node000006"><a xlink:title=" ">
<path fill="none" stroke="#63b8ff" d="M559.77,-169.03C512.26,-159.35 432.13,-143.02 381.19,-132.64"/>
<polygon fill="#63b8ff" stroke="#63b8ff" points="382.13,-129.26 371.64,-130.69 380.74,-136.12 382.13,-129.26"/>
</a>
</g>
</g>
<!-- Node7 -->
<g id="Node000007" class="node">
<title>Node7</title>
<g id="a_Node000007"><a xlink:title=" ">
<polygon fill="#e0e0e0" stroke="#999999" points="448,-132 387.75,-132 387.75,-112 448,-112 448,-132"/>
<text xml:space="preserve" text-anchor="middle" x="417.88" y="-118.5" font-family="Helvetica,sans-Serif" font-size="10.00">QSpinBox</text>
</a>
</g>
</g>
<!-- Node2&#45;&gt;Node7 -->
<g id="edge6_Node000002_Node000007" class="edge">
<title>Node2&#45;&gt;Node7</title>
<g id="a_edge6_Node000002_Node000007"><a xlink:title=" ">
<path fill="none" stroke="#63b8ff" d="M567.35,-167.59C537.32,-158.63 491.95,-145.1 459.07,-135.29"/>
<polygon fill="#63b8ff" stroke="#63b8ff" points="460.47,-132.06 449.89,-132.55 458.47,-138.76 460.47,-132.06"/>
</a>
</g>
</g>
<!-- Node8 -->
<g id="Node000008" class="node">
<title>Node8</title>
<g id="a_Node000008"><a xlink:title=" ">
<polygon fill="#e0e0e0" stroke="#999999" points="557.38,-132 466.38,-132 466.38,-112 557.38,-112 557.38,-132"/>
<text xml:space="preserve" text-anchor="middle" x="511.88" y="-118.5" font-family="Helvetica,sans-Serif" font-size="10.00">QDoubleSpinBox</text>
</a>
</g>
</g>
<!-- Node2&#45;&gt;Node8 -->
<g id="edge7_Node000002_Node000008" class="edge">
<title>Node2&#45;&gt;Node8</title>
<g id="a_edge7_Node000002_Node000008"><a xlink:title=" ">
<path fill="none" stroke="#63b8ff" d="M583.72,-167.59C570.83,-159.59 552.04,-147.93 536.92,-138.54"/>
<polygon fill="#63b8ff" stroke="#63b8ff" points="538.78,-135.58 528.43,-133.28 535.08,-141.53 538.78,-135.58"/>
</a>
</g>
</g>
<!-- Node9 -->
<g id="Node000009" class="node">
<title>Node9</title>
<g id="a_Node000009"><a xlink:title=" ">
<polygon fill="#e0e0e0" stroke="#999999" points="622.25,-132 575.5,-132 575.5,-112 622.25,-112 622.25,-132"/>
<text xml:space="preserve" text-anchor="middle" x="598.88" y="-118.5" font-family="Helvetica,sans-Serif" font-size="10.00">QLabel</text>
</a>
</g>
</g>
<!-- Node2&#45;&gt;Node9 -->
<g id="edge8_Node000002_Node000009" class="edge">
<title>Node2&#45;&gt;Node9</title>
<g id="a_edge8_Node000002_Node000009"><a xlink:title=" ">
<path fill="none" stroke="#63b8ff" d="M598.88,-167.59C598.88,-161.01 598.88,-151.96 598.88,-143.73"/>
<polygon fill="#63b8ff" stroke="#63b8ff" points="602.38,-143.81 598.88,-133.81 595.38,-143.81 602.38,-143.81"/>
</a>
</g>
</g>
<!-- Node10 -->
<g id="Node000010" class="node">
<title>Node10</title>
<g id="a_Node000010"><a xlink:title=" ">
<polygon fill="#e0e0e0" stroke="#999999" points="717.62,-132 640.12,-132 640.12,-112 717.62,-112 717.62,-132"/>
<text xml:space="preserve" text-anchor="middle" x="678.88" y="-118.5" font-family="Helvetica,sans-Serif" font-size="10.00">QTableWidget</text>
</a>
</g>
</g>
<!-- Node2&#45;&gt;Node10 -->
<g id="edge9_Node000002_Node000010" class="edge">
<title>Node2&#45;&gt;Node10</title>
<g id="a_edge9_Node000002_Node000010"><a xlink:title=" ">
<path fill="none" stroke="#63b8ff" d="M612.81,-167.59C624.55,-159.67 641.61,-148.16 655.44,-138.82"/>
<polygon fill="#63b8ff" stroke="#63b8ff" points="657.25,-141.82 663.58,-133.33 653.33,-136.02 657.25,-141.82"/>
</a>
</g>
</g>
<!-- Node11 -->
<g id="Node000011" class="node">
<title>Node11</title>
<g id="a_Node000011"><a xlink:title=" ">
<polygon fill="#e0e0e0" stroke="#999999" points="795.62,-132 736.12,-132 736.12,-112 795.62,-112 795.62,-132"/>
<text xml:space="preserve" text-anchor="middle" x="765.88" y="-118.5" font-family="Helvetica,sans-Serif" font-size="10.00">QTextEdit</text>
</a>
</g>
</g>
<!-- Node2&#45;&gt;Node11 -->
<g id="edge10_Node000002_Node000011" class="edge">
<title>Node2&#45;&gt;Node11</title>
<g id="a_edge10_Node000002_Node000011"><a xlink:title=" ">
<path fill="none" stroke="#63b8ff" d="M627.96,-167.59C655.1,-158.82 695.81,-145.66 725.97,-135.9"/>
<polygon fill="#63b8ff" stroke="#63b8ff" points="726.68,-139.35 735.12,-132.95 724.53,-132.69 726.68,-139.35"/>
</a>
</g>
</g>
<!-- Node12 -->
<g id="Node000012" class="node">
<title>Node12</title>
<g id="a_Node000012"><a xlink:title=" ">
<polygon fill="#e0e0e0" stroke="#999999" points="815,-76 766.75,-76 766.75,-56 815,-56 815,-76"/>
<text xml:space="preserve" text-anchor="middle" x="790.88" y="-62.5" font-family="Helvetica,sans-Serif" font-size="10.00">QTimer</text>
</a>
</g>
</g>
<!-- Node2&#45;&gt;Node12 -->
<g id="edge11_Node000002_Node000012" class="edge">
<title>Node2&#45;&gt;Node12</title>
<g id="a_edge11_Node000002_Node000012"><a xlink:title=" ">
<path fill="none" stroke="#63b8ff" d="M637.97,-169.1C696.97,-157.09 802.23,-135.28 804.88,-132 815.37,-118.96 809.48,-99.83 802.4,-85.7"/>
<polygon fill="#63b8ff" stroke="#63b8ff" points="805.68,-84.39 797.75,-77.37 799.57,-87.81 805.68,-84.39"/>
</a>
</g>
</g>
<!-- Node13 -->
<g id="Node000013" class="node">
<title>Node13</title>
<g id="a_Node000013"><a xlink:title=" ">
<polygon fill="#e0e0e0" stroke="#999999" points="935.62,-132 852.12,-132 852.12,-112 935.62,-112 935.62,-132"/>
<text xml:space="preserve" text-anchor="middle" x="893.88" y="-118.5" font-family="Helvetica,sans-Serif" font-size="10.00">QElapsedTimer</text>
</a>
</g>
</g>
<!-- Node2&#45;&gt;Node13 -->
<g id="edge12_Node000002_Node000013" class="edge">
<title>Node2&#45;&gt;Node13</title>
<g id="a_edge12_Node000002_Node000013"><a xlink:title=" ">
<path fill="none" stroke="#63b8ff" d="M637.9,-169.66C640.94,-169.1 643.96,-168.54 646.88,-168 713.68,-155.65 790.69,-141.66 840.72,-132.6"/>
<polygon fill="#63b8ff" stroke="#63b8ff" points="841.2,-136.07 850.42,-130.85 839.95,-129.18 841.2,-136.07"/>
</a>
</g>
</g>
<!-- Node14 -->
<g id="Node000014" class="node">
<title>Node14</title>
<g id="a_Node000014"><a xlink:href="serialmanager_8h.html" target="_top" xlink:title="Modulo de comunicacion serie con protocolo UNER para el HMI Qt.">
<polygon fill="white" stroke="#666666" points="1038.38,-132 953.38,-132 953.38,-112 1038.38,-112 1038.38,-132"/>
<text xml:space="preserve" text-anchor="middle" x="995.88" y="-118.5" font-family="Helvetica,sans-Serif" font-size="10.00">serialmanager.h</text>
</a>
</g>
</g>
<!-- Node2&#45;&gt;Node14 -->
<g id="edge13_Node000002_Node000014" class="edge">
<title>Node2&#45;&gt;Node14</title>
<g id="a_edge13_Node000002_Node000014"><a xlink:title=" ">
<path fill="none" stroke="#63b8ff" d="M637.87,-169.47C640.91,-168.95 643.94,-168.45 646.88,-168 775.12,-148.25 810.97,-151.4 941.79,-132.39"/>
<polygon fill="#63b8ff" stroke="#63b8ff" points="942.17,-135.87 951.55,-130.95 941.15,-128.95 942.17,-135.87"/>
</a>
</g>
</g>
<!-- Node19 -->
<g id="Node000019" class="node">
<title>Node19</title>
<g id="a_Node000019"><a xlink:href="protocol_8h.html" target="_top" xlink:title="Definiciones del protocolo de comunicacion UNER entre MCU y HMI Qt.">
<polygon fill="white" stroke="#666666" points="1232.25,-76 1173.5,-76 1173.5,-56 1232.25,-56 1232.25,-76"/>
<text xml:space="preserve" text-anchor="middle" x="1202.88" y="-62.5" font-family="Helvetica,sans-Serif" font-size="10.00">protocol.h</text>
</a>
</g>
</g>
<!-- Node2&#45;&gt;Node19 -->
<g id="edge21_Node000002_Node000019" class="edge">
<title>Node2&#45;&gt;Node19</title>
<g id="a_edge21_Node000002_Node000019"><a xlink:title=" ">
<path fill="none" stroke="#63b8ff" d="M638.12,-169.33C641.08,-168.84 644.02,-168.39 646.88,-168 824.13,-143.48 874.21,-175.11 1047.88,-132 1094.29,-120.48 1144.79,-97.07 1175.13,-81.72"/>
<polygon fill="#63b8ff" stroke="#63b8ff" points="1176.72,-84.84 1184.01,-77.16 1173.52,-78.62 1176.72,-84.84"/>
</a>
</g>
</g>
<!-- Node14&#45;&gt;Node12 -->
<g id="edge18_Node000014_Node000012" class="edge">
<title>Node14&#45;&gt;Node12</title>
<g id="a_edge18_Node000014_Node000012"><a xlink:title=" ">
<path fill="none" stroke="#63b8ff" d="M959.27,-111.54C926.75,-103.11 877.62,-90.31 826.34,-76.64"/>
<polygon fill="#63b8ff" stroke="#63b8ff" points="827.4,-73.3 816.84,-74.1 825.6,-80.06 827.4,-73.3"/>
</a>
</g>
</g>
<!-- Node15 -->
<g id="Node000015" class="node">
<title>Node15</title>
<g id="a_Node000015"><a xlink:title=" ">
<polygon fill="#e0e0e0" stroke="#999999" points="884.88,-76 832.88,-76 832.88,-56 884.88,-56 884.88,-76"/>
<text xml:space="preserve" text-anchor="middle" x="858.88" y="-62.5" font-family="Helvetica,sans-Serif" font-size="10.00">QObject</text>
</a>
</g>
</g>
<!-- Node14&#45;&gt;Node15 -->
<g id="edge14_Node000014_Node000015" class="edge">
<title>Node14&#45;&gt;Node15</title>
<g id="a_edge14_Node000014_Node000015"><a xlink:title=" ">
<path fill="none" stroke="#63b8ff" d="M972.01,-111.59C950.34,-103.05 918.11,-90.35 893.58,-80.68"/>
<polygon fill="#63b8ff" stroke="#63b8ff" points="894.92,-77.45 884.33,-77.03 892.35,-83.96 894.92,-77.45"/>
</a>
</g>
</g>
<!-- Node16 -->
<g id="Node000016" class="node">
<title>Node16</title>
<g id="a_Node000016"><a xlink:title=" ">
<polygon fill="#e0e0e0" stroke="#999999" points="969,-76 902.75,-76 902.75,-56 969,-56 969,-76"/>
<text xml:space="preserve" text-anchor="middle" x="935.88" y="-62.5" font-family="Helvetica,sans-Serif" font-size="10.00">QSerialPort</text>
</a>
</g>
</g>
<!-- Node14&#45;&gt;Node16 -->
<g id="edge15_Node000014_Node000016" class="edge">
<title>Node14&#45;&gt;Node16</title>
<g id="a_edge15_Node000014_Node000016"><a xlink:title=" ">
<path fill="none" stroke="#63b8ff" d="M985.42,-111.59C976.91,-103.93 964.66,-92.91 954.48,-83.75"/>
<polygon fill="#63b8ff" stroke="#63b8ff" points="957.11,-81.4 947.33,-77.31 952.42,-86.6 957.11,-81.4"/>
</a>
</g>
</g>
<!-- Node17 -->
<g id="Node000017" class="node">
<title>Node17</title>
<g id="a_Node000017"><a xlink:title=" ">
<polygon fill="#e0e0e0" stroke="#999999" points="1070.25,-76 987.5,-76 987.5,-56 1070.25,-56 1070.25,-76"/>
<text xml:space="preserve" text-anchor="middle" x="1028.88" y="-62.5" font-family="Helvetica,sans-Serif" font-size="10.00">QSerialPortInfo</text>
</a>
</g>
</g>
<!-- Node14&#45;&gt;Node17 -->
<g id="edge16_Node000014_Node000017" class="edge">
<title>Node14&#45;&gt;Node17</title>
<g id="a_edge16_Node000014_Node000017"><a xlink:title=" ">
<path fill="none" stroke="#63b8ff" d="M1001.62,-111.59C1005.93,-104.55 1011.97,-94.67 1017.26,-86"/>
<polygon fill="#63b8ff" stroke="#63b8ff" points="1020.18,-87.95 1022.4,-77.59 1014.2,-84.3 1020.18,-87.95"/>
</a>
</g>
</g>
<!-- Node18 -->
<g id="Node000018" class="node">
<title>Node18</title>
<g id="a_Node000018"><a xlink:title=" ">
<polygon fill="#e0e0e0" stroke="#999999" points="1155.38,-76 1088.38,-76 1088.38,-56 1155.38,-56 1155.38,-76"/>
<text xml:space="preserve" text-anchor="middle" x="1121.88" y="-62.5" font-family="Helvetica,sans-Serif" font-size="10.00">QByteArray</text>
</a>
</g>
</g>
<!-- Node14&#45;&gt;Node18 -->
<g id="edge17_Node000014_Node000018" class="edge">
<title>Node14&#45;&gt;Node18</title>
<g id="a_edge17_Node000014_Node000018"><a xlink:title=" ">
<path fill="none" stroke="#63b8ff" d="M1017.82,-111.59C1037.58,-103.13 1066.87,-90.58 1089.34,-80.94"/>
<polygon fill="#63b8ff" stroke="#63b8ff" points="1090.55,-84.23 1098.37,-77.08 1087.79,-77.8 1090.55,-84.23"/>
</a>
</g>
</g>
<!-- Node14&#45;&gt;Node19 -->
<g id="edge19_Node000014_Node000019" class="edge">
<title>Node14&#45;&gt;Node19</title>
<g id="a_edge19_Node000014_Node000019"><a xlink:title=" ">
<path fill="none" stroke="#63b8ff" d="M1031.93,-111.59C1068.41,-102.08 1124.68,-87.4 1162.6,-77.51"/>
<polygon fill="#63b8ff" stroke="#63b8ff" points="1163,-81.02 1171.79,-75.11 1161.23,-74.25 1163,-81.02"/>
</a>
</g>
</g>
<!-- Node20 -->
<g id="Node000020" class="node">
<title>Node20</title>
<g id="a_Node000020"><a xlink:title=" ">
<polygon fill="#e0e0e0" stroke="#999999" points="1225.5,-20 1180.25,-20 1180.25,0 1225.5,0 1225.5,-20"/>
<text xml:space="preserve" text-anchor="middle" x="1202.88" y="-6.5" font-family="Helvetica,sans-Serif" font-size="10.00">cstdint</text>
</a>
</g>
</g>
<!-- Node19&#45;&gt;Node20 -->
<g id="edge20_Node000019_Node000020" class="edge">
<title>Node19&#45;&gt;Node20</title>
<g id="a_edge20_Node000019_Node000020"><a xlink:title=" ">
<path fill="none" stroke="#63b8ff" d="M1202.88,-55.59C1202.88,-49.01 1202.88,-39.96 1202.88,-31.73"/>
<polygon fill="#63b8ff" stroke="#63b8ff" points="1206.38,-31.81 1202.88,-21.81 1199.38,-31.81 1206.38,-31.81"/>
</a>
</g>
</g>
</g>
</svg>

<g id="navigator" transform="translate(0 0)" fill="#404254">
  <rect fill="#f2f5e9" fill-opacity="0.5" stroke="#606060" stroke-width=".5" x="0" y="0" width="60" height="60"/>
  <use id="zoomplus" xlink:href="#zoomPlus" x="17" y="9" onmousedown="handleZoom(evt,'in')"/>
  <use id="zoomminus" xlink:href="#zoomMin" x="42" y="9" onmousedown="handleZoom(evt,'out')"/>
  <use id="reset" xlink:href="#resetDef" x="30" y="36" onmousedown="handleReset()"/>
   <use id="arrowup" xlink:href="#arrowUp" x="0" y="0" onmousedown="handlePan(0,-1)"/>
  <use id="arrowright" xlink:href="#arrowRight" x="0" y="0" onmousedown="handlePan(1,0)"/>
  <use id="arrowdown" xlink:href="#arrowDown" x="0" y="0" onmousedown="handlePan(0,1)"/>
  <use id="arrowleft" xlink:href="#arrowLeft" x="0" y="0" onmousedown="handlePan(-1,0)"/>
</g>
<svg viewBox="0 0 15 15" width="100%" height="30px" preserveAspectRatio="xMaxYMin meet">
 <g id="arrow_out" transform="scale(0.3 0.3)">
  <a xlink:href="mainwindow_8cpp__incl_org.svg" target="_base">
   <rect id="button" ry="5" rx="5" y="6" x="6" height="38" width="38"
        fill="#f2f5e9" fill-opacity="0.5" stroke="#606060" stroke-width="1.0"/>
   <path id="arrow"
     d="M 11.500037,31.436501 C 11.940474,20.09759 22.043105,11.32322 32.158766,21.979434 L 37.068811,17.246167 C 37.068811,17.246167 37.088388,32 37.088388,32 L 22.160133,31.978069 C 22.160133,31.978069 26.997745,27.140456 26.997745,27.140456 C 18.528582,18.264221 13.291696,25.230495 11.500037,31.436501 z"
     style="fill:#404040;"/>
  </a>
 </g>
</svg>

<style type='text/css'>
<![CDATA[
[data-mouse-over-selected='false'] { opacity: 0.7; }
[data-mouse-over-selected='true']  { opacity: 1.0; }
]]>
</style>
<script type="application/ecmascript"><![CDATA[
document.addEventListener('DOMContentLoaded', (event) => {
  highlightEdges();
  highlightAdjacentNodes();
});
]]></script>
</svg>
