<?xml version="1.0" encoding="UTF-8" standalone="no"?>
<!DOCTYPE svg PUBLIC "-//W3C//DTD SVG 1.1//EN"
 "http://www.w3.org/Graphics/SVG/1.1/DTD/svg11.dtd">
<!-- Generated by graphviz version 14.1.5 (20260411.2331)
 -->
<!-- Title: mainwindow.h Pages: 1 -->
<svg width="1240pt" height="196pt"
 viewBox="0.00 0.00 1240.00 196.00" xmlns="http://www.w3.org/2000/svg" xmlns:xlink="http://www.w3.org/1999/xlink">
<g id="graph0" class="graph" transform="scale(1 1) rotate(0) translate(4 192)">
<title>mainwindow.h</title>
<!-- Node1 -->
<g id="Node000001" class="node">
<title>Node1</title>
<g id="a_Node000001"><a xlink:title="Ventana principal del HMI para la cinta clasificadora.">
<polygon fill="#999999" stroke="#666666" points="637.62,-188 560.12,-188 560.12,-168 637.62,-168 637.62,-188"/>
<text xml:space="preserve" text-anchor="middle" x="598.88" y="-174.5" font-family="Helvetica,sans-Serif" font-size="10.00">mainwindow.h</text>
</a>
</g>
</g>
<!-- Node2 -->
<g id="Node000002" class="node">
<title>Node2</title>
<g id="a_Node000002"><a xlink:title=" ">
<polygon fill="#e0e0e0" stroke="#999999" points="79.75,-132 0,-132 0,-112 79.75,-112 79.75,-132"/>
<text xml:space="preserve" text-anchor="middle" x="39.88" y="-118.5" font-family="Helvetica,sans-Serif" font-size="10.00">QMainWindow</text>
</a>
</g>
</g>
<!-- Node1&#45;&gt;Node2 -->
<g id="edge1_Node000001_Node000002" class="edge">
<title>Node1&#45;&gt;Node2</title>
<g id="a_edge1_Node000001_Node000002"><a xlink:title=" ">
<path fill="none" stroke="#63b8ff" d="M559.71,-174.8C475.8,-169.81 272.29,-156.29 91.53,-132.24"/>
<polygon fill="#63b8ff" stroke="#63b8ff" points="92.08,-128.78 81.7,-130.92 91.15,-135.72 92.08,-128.78"/>
</a>
</g>
</g>
<!-- Node3 -->
<g id="Node000003" class="node">
<title>Node3</title>
<g id="a_Node000003"><a xlink:title=" ">
<polygon fill="#e0e0e0" stroke="#999999" points="188,-132 97.75,-132 97.75,-112 188,-112 188,-132"/>
<text xml:space="preserve" text-anchor="middle" x="142.88" y="-118.5" font-family="Helvetica,sans-Serif" font-size="10.00">QStackedWidget</text>
</a>
</g>
</g>
<!-- Node1&#45;&gt;Node3 -->
<g id="edge2_Node000001_Node000003" class="edge">
<title>Node1&#45;&gt;Node3</title>
<g id="a_edge2_Node000001_Node000003"><a xlink:title=" ">
<path fill="none" stroke="#63b8ff" d="M559.7,-173.32C489.6,-166.58 337.83,-151.3 199.43,-132.29"/>
<polygon fill="#63b8ff" stroke="#63b8ff" points="200.11,-128.85 189.72,-130.95 199.15,-135.79 200.11,-128.85"/>
</a>
</g>
</g>
<!-- Node4 -->
<g id="Node000004" class="node">
<title>Node4</title>
<g id="a_Node000004"><a xlink:title=" ">
<polygon fill="#e0e0e0" stroke="#999999" points="280.12,-132 205.62,-132 205.62,-112 280.12,-112 280.12,-132"/>
<text xml:space="preserve" text-anchor="middle" x="242.88" y="-118.5" font-family="Helvetica,sans-Serif" font-size="10.00">QPushButton</text>
</a>
</g>
</g>
<!-- Node1&#45;&gt;Node4 -->
<g id="edge3_Node000001_Node000004" class="edge">
<title>Node1&#45;&gt;Node4</title>
<g id="a_edge3_Node000001_Node000004"><a xlink:title=" ">
<path fill="none" stroke="#63b8ff" d="M559.63,-171.93C502.77,-164.45 393.91,-149.62 291.65,-132.41"/>
<polygon fill="#63b8ff" stroke="#63b8ff" points="292.44,-128.99 282,-130.77 291.27,-135.89 292.44,-128.99"/>
</a>
</g>
</g>
<!-- Node5 -->
<g id="Node000005" class="node">
<title>Node5</title>
<g id="a_Node000005"><a xlink:title=" ">
<polygon fill="#e0e0e0" stroke="#999999" points="370,-132 297.75,-132 297.75,-112 370,-112 370,-132"/>
<text xml:space="preserve" text-anchor="middle" x="333.88" y="-118.5" font-family="Helvetica,sans-Serif" font-size="10.00">QComboBox</text>
</a>
</g>
</g>
<!-- Node1&#45;&gt;Node5 -->
<g id="edge4_Node000001_Node000005" class="edge">
<title>Node1&#45;&gt;Node5</title>
<g id="a_edge4_Node000001_Node000005"><a xlink:title=" ">
<path fill="none" stroke="#63b8ff" d="M559.77,-169.03C512.26,-159.35 432.13,-143.02 381.19,-132.64"/>
<polygon fill="#63b8ff" stroke="#63b8ff" points="382.13,-129.26 371.64,-130.69 380.74,-136.12 382.13,-129.26"/>
</a>
</g>
</g>
<!-- Node6 -->
<g id="Node000006" class="node">
<title>Node6</title>
<g id="a_Node000006"><a xlink:title=" ">
<polygon fill="#e0e0e0" stroke="#999999" points="448,-132 387.75,-132 387.75,-112 448,-112 448,-132"/>
<text xml:space="preserve" text-anchor="middle" x="417.88" y="-118.5" font-family="Helvetica,sans-Serif" font-size="10.00">QSpinBox</text>
</a>
</g>
</g>
<!-- Node1&#45;&gt;Node6 -->
<g id="edge5_Node000001_Node000006" class="edge">
<title>Node1&#45;&gt;Node6</title>
<g id="a_edge5_Node000001_Node000006"><a xlink:title=" ">
<path fill="none" stroke="#63b8ff" d="M567.35,-167.59C537.32,-158.63 491.95,-145.1 459.07,-135.29"/>
<polygon fill="#63b8ff" stroke="#63b8ff" points="460.47,-132.06 449.89,-132.55 458.47,-138.76 460.47,-132.06"/>
</a>
</g>
</g>
<!-- Node7 -->
<g id="Node000007" class="node">
<title>Node7</title>
<g id="a_Node000007"><a xlink:title=" ">
<polygon fill="#e0e0e0" stroke="#999999" points="557.38,-132 466.38,-132 466.38,-112 557.38,-112 557.38,-132"/>
<text xml:space="preserve" text-anchor="middle" x="511.88" y="-118.5" font-family="Helvetica,sans-Serif" font-size="10.00">QDoubleSpinBox</text>
</a>
</g>
</g>
<!-- Node1&#45;&gt;Node7 -->
<g id="edge6_Node000001_Node000007" class="edge">
<title>Node1&#45;&gt;Node7</title>
<g id="a_edge6_Node000001_Node000007"><a xlink:title=" ">
<path fill="none" stroke="#63b8ff" d="M583.72,-167.59C570.83,-159.59 552.04,-147.93 536.92,-138.54"/>
<polygon fill="#63b8ff" stroke="#63b8ff" points="538.78,-135.58 528.43,-133.28 535.08,-141.53 538.78,-135.58"/>
</a>
</g>
</g>
<!-- Node8 -->
<g id="Node000008" class="node">
<title>Node8</title>
<g id="a_Node000008"><a xlink:title=" ">
<polygon fill="#e0e0e0" stroke="#999999" points="622.25,-132 575.5,-132 575.5,-112 622.25,-112 622.25,-132"/>
<text xml:space="preserve" text-anchor="middle" x="598.88" y="-118.5" font-family="Helvetica,sans-Serif" font-size="10.00">QLabel</text>
</a>
</g>
</g>
<!-- Node1&#45;&gt;Node8 -->
<g id="edge7_Node000001_Node000008" class="edge">
<title>Node1&#45;&gt;Node8</title>
<g id="a_edge7_Node000001_Node000008"><a xlink:title=" ">
<path fill="none" stroke="#63b8ff" d="M598.88,-167.59C598.88,-161.01 598.88,-151.96 598.88,-143.73"/>
<polygon fill="#63b8ff" stroke="#63b8ff" points="602.38,-143.81 598.88,-133.81 595.38,-143.81 602.38,-143.81"/>
</a>
</g>
</g>
<!-- Node9 -->
<g id="Node000009" class="node">
<title>Node9</title>
<g id="a_Node000009"><a xlink:title=" ">
<polygon fill="#e0e0e0" stroke="#999999" points="717.62,-132 640.12,-132 640.12,-112 717.62,-112 717.62,-132"/>
<text xml:space="preserve" text-anchor="middle" x="678.88" y="-118.5" font-family="Helvetica,sans-Serif" font-size="10.00">QTableWidget</text>
</a>
</g>
</g>
<!-- Node1&#45;&gt;Node9 -->
<g id="edge8_Node000001_Node000009" class="edge">
<title>Node1&#45;&gt;Node9</title>
<g id="a_edge8_Node000001_Node000009"><a xlink:title=" ">
<path fill="none" stroke="#63b8ff" d="M612.81,-167.59C624.55,-159.67 641.61,-148.16 655.44,-138.82"/>
<polygon fill="#63b8ff" stroke="#63b8ff" points="657.25,-141.82 663.58,-133.33 653.33,-136.02 657.25,-141.82"/>
</a>
</g>
</g>
<!-- Node10 -->
<g id="Node000010" class="node">
<title>Node10</title>
<g id="a_Node000010"><a xlink:title=" ">
<polygon fill="#e0e0e0" stroke="#999999" points="795.62,-132 736.12,-132 736.12,-112 795.62,-112 795.62,-132"/>
<text xml:space="preserve" text-anchor="middle" x="765.88" y="-118.5" font-family="Helvetica,sans-Serif" font-size="10.00">QTextEdit</text>
</a>
</g>
</g>
<!-- Node1&#45;&gt;Node10 -->
<g id="edge9_Node000001_Node000010" class="edge">
<title>Node1&#45;&gt;Node10</title>
<g id="a_edge9_Node000001_Node000010"><a xlink:title=" ">
<path fill="none" stroke="#63b8ff" d="M627.96,-167.59C655.1,-158.82 695.81,-145.66 725.97,-135.9"/>
<polygon fill="#63b8ff" stroke="#63b8ff" points="726.68,-139.35 735.12,-132.95 724.53,-132.69 726.68,-139.35"/>
</a>
</g>
</g>
<!-- Node11 -->
<g id="Node000011" class="node">
<title>Node11</title>
<g id="a_Node000011"><a xlink:title=" ">
<polygon fill="#e0e0e0" stroke="#999999" points="815,-76 766.75,-76 766.75,-56 815,-56 815,-76"/>
<text xml:space="preserve" text-anchor="middle" x="790.88" y="-62.5" font-family="Helvetica,sans-Serif" font-size="10.00">QTimer</text>
</a>
</g>
</g>
<!-- Node1&#45;&gt;Node11 -->
<g id="edge10_Node000001_Node000011" class="edge">
<title>Node1&#45;&gt;Node11</title>
<g id="a_edge10_Node000001_Node000011"><a xlink:title=" ">
<path fill="none" stroke="#63b8ff" d="M638,-174.16C691.8,-169.35 784.33,-157.52 804.88,-132 815.37,-118.96 809.48,-99.83 802.4,-85.7"/>
<polygon fill="#63b8ff" stroke="#63b8ff" points="805.68,-84.39 797.75,-77.37 799.57,-87.81 805.68,-84.39"/>
</a>
</g>
</g>
<!-- Node12 -->
<g id="Node000012" class="node">
<title>Node12</title>
<g id="a_Node000012"><a xlink:title=" ">
<polygon fill="#e0e0e0" stroke="#999999" points="935.62,-132 852.12,-132 852.12,-112 935.62,-112 935.62,-132"/>
<text xml:space="preserve" text-anchor="middle" x="893.88" y="-118.5" font-family="Helvetica,sans-Serif" font-size="10.00">QElapsedTimer</text>
</a>
</g>
</g>
<!-- Node1&#45;&gt;Node12 -->
<g id="edge11_Node000001_Node000012" class="edge">
<title>Node1&#45;&gt;Node12</title>
<g id="a_edge11_Node000001_Node000012"><a xlink:title=" ">
<path fill="none" stroke="#63b8ff" d="M638.05,-169.83C690.06,-160.31 782.13,-143.45 840.48,-132.77"/>
<polygon fill="#63b8ff" stroke="#63b8ff" points="840.98,-136.24 850.19,-131 839.72,-129.36 840.98,-136.24"/>
</a>
</g>
</g>
<!-- Node13 -->
<g id="Node000013" class="node">
<title>Node13</title>
<g id="a_Node000013"><a xlink:href="serialmanager_8h.html" target="_top" xlink:title="Modulo de comunicacion serie con protocolo UNER para el HMI Qt.">
<polygon fill="white" stroke="#666666" points="1038.38,-132 953.38,-132 953.38,-112 1038.38,-112 1038.38,-132"/>
<text xml:space="preserve" text-anchor="middle" x="995.88" y="-118.5" font-family="Helvetica,sans-Serif" font-size="10.00">serialmanager.h</text>
</a>
</g>
</g>
<!-- Node1&#45;&gt;Node13 -->
<g id="edge12_Node000001_Node000013" class="edge">
<title>Node1&#45;&gt;Node13</title>
<g id="a_edge12_Node000001_Node000013"><a xlink:title=" ">
<path fill="none" stroke="#63b8ff" d="M637.87,-172.51C700.02,-165.23 825.63,-150.01 941.83,-132.41"/>
<polygon fill="#63b8ff" stroke="#63b8ff" points="942.19,-135.9 951.55,-130.93 941.14,-128.98 942.19,-135.9"/>
</a>
</g>
</g>
<!-- Node18 -->
<g id="Node000018" class="node">
<title>Node18</title>
<g id="a_Node000018"><a xlink:href="protocol_8h.html" target="_top" xlink:title="Definiciones del protocolo de comunicacion UNER entre MCU y HMI Qt.">
<polygon fill="white" stroke="#666666" points="1232.25,-76 1173.5,-76 1173.5,-56 1232.25,-56 1232.25,-76"/>
<text xml:space="preserve" text-anchor="middle" x="1202.88" y="-62.5" font-family="Helvetica,sans-Serif" font-size="10.00">protocol.h</text>
</a>
</g>
</g>
<!-- Node1&#45;&gt;Node18 -->
<g id="edge20_Node000001_Node000018" class="edge">
<title>Node1&#45;&gt;Node18</title>
<g id="a_edge20_Node000001_Node000018"><a xlink:title=" ">
<path fill="none" stroke="#63b8ff" d="M637.98,-176.95C716.79,-176.01 899.8,-169.57 1047.88,-132 1094.23,-120.24 1144.75,-96.9 1175.11,-81.63"/>
<polygon fill="#63b8ff" stroke="#63b8ff" points="1176.68,-84.75 1183.99,-77.09 1173.49,-78.52 1176.68,-84.75"/>
</a>
</g>
</g>
<!-- Node13&#45;&gt;Node11 -->
<g id="edge17_Node000013_Node000011" class="edge">
<title>Node13&#45;&gt;Node11</title>
<g id="a_edge17_Node000013_Node000011"><a xlink:title=" ">
<path fill="none" stroke="#63b8ff" d="M959.27,-111.54C926.75,-103.11 877.62,-90.31 826.34,-76.64"/>
<polygon fill="#63b8ff" stroke="#63b8ff" points="827.4,-73.3 816.84,-74.1 825.6,-80.06 827.4,-73.3"/>
</a>
</g>
</g>
<!-- Node14 -->
<g id="Node000014" class="node">
<title>Node14</title>
<g id="a_Node000014"><a xlink:title=" ">
<polygon fill="#e0e0e0" stroke="#999999" points="884.88,-76 832.88,-76 832.88,-56 884.88,-56 884.88,-76"/>
<text xml:space="preserve" text-anchor="middle" x="858.88" y="-62.5" font-family="Helvetica,sans-Serif" font-size="10.00">QObject</text>
</a>
</g>
</g>
<!-- Node13&#45;&gt;Node14 -->
<g id="edge13_Node000013_Node000014" class="edge">
<title>Node13&#45;&gt;Node14</title>
<g id="a_edge13_Node000013_Node000014"><a xlink:title=" ">
<path fill="none" stroke="#63b8ff" d="M972.01,-111.59C950.34,-103.05 918.11,-90.35 893.58,-80.68"/>
<polygon fill="#63b8ff" stroke="#63b8ff" points="894.92,-77.45 884.33,-77.03 892.35,-83.96 894.92,-77.45"/>
</a>
</g>
</g>
<!-- Node15 -->
<g id="Node000015" class="node">
<title>Node15</title>
<g id="a_Node000015"><a xlink:title=" ">
<polygon fill="#e0e0e0" stroke="#999999" points="969,-76 902.75,-76 902.75,-56 969,-56 969,-76"/>
<text xml:space="preserve" text-anchor="middle" x="935.88" y="-62.5" font-family="Helvetica,sans-Serif" font-size="10.00">QSerialPort</text>
</a>
</g>
</g>
<!-- Node13&#45;&gt;Node15 -->
<g id="edge14_Node000013_Node000015" class="edge">
<title>Node13&#45;&gt;Node15</title>
<g id="a_edge14_Node000013_Node000015"><a xlink:title=" ">
<path fill="none" stroke="#63b8ff" d="M985.42,-111.59C976.91,-103.93 964.66,-92.91 954.48,-83.75"/>
<polygon fill="#63b8ff" stroke="#63b8ff" points="957.11,-81.4 947.33,-77.31 952.42,-86.6 957.11,-81.4"/>
</a>
</g>
</g>
<!-- Node16 -->
<g id="Node000016" class="node">
<title>Node16</title>
<g id="a_Node000016"><a xlink:title=" ">
<polygon fill="#e0e0e0" stroke="#999999" points="1070.25,-76 987.5,-76 987.5,-56 1070.25,-56 1070.25,-76"/>
<text xml:space="preserve" text-anchor="middle" x="1028.88" y="-62.5" font-family="Helvetica,sans-Serif" font-size="10.00">QSerialPortInfo</text>
</a>
</g>
</g>
<!-- Node13&#45;&gt;Node16 -->
<g id="edge15_Node000013_Node000016" class="edge">
<title>Node13&#45;&gt;Node16</title>
<g id="a_edge15_Node000013_Node000016"><a xlink:title=" ">
<path fill="none" stroke="#63b8ff" d="M1001.62,-111.59C1005.93,-104.55 1011.97,-94.67 1017.26,-86"/>
<polygon fill="#63b8ff" stroke="#63b8ff" points="1020.18,-87.95 1022.4,-77.59 1014.2,-84.3 1020.18,-87.95"/>
</a>
</g>
</g>
<!-- Node17 -->
<g id="Node000017" class="node">
<title>Node17</title>
<g id="a_Node000017"><a xlink:title=" ">
<polygon fill="#e0e0e0" stroke="#999999" points="1155.38,-76 1088.38,-76 1088.38,-56 1155.38,-56 1155.38,-76"/>
<text xml:space="preserve" text-anchor="middle" x="1121.88" y="-62.5" font-family="Helvetica,sans-Serif" font-size="10.00">QByteArray</text>
</a>
</g>
</g>
<!-- Node13&#45;&gt;Node17 -->
<g id="edge16_Node000013_Node000017" class="edge">
<title>Node13&#45;&gt;Node17</title>
<g id="a_edge16_Node000013_Node000017"><a xlink:title=" ">
<path fill="none" stroke="#63b8ff" d="M1017.82,-111.59C1037.58,-103.13 1066.87,-90.58 1089.34,-80.94"/>
<polygon fill="#63b8ff" stroke="#63b8ff" points="1090.55,-84.23 1098.37,-77.08 1087.79,-77.8 1090.55,-84.23"/>
</a>
</g>
</g>
<!-- Node13&#45;&gt;Node18 -->
<g id="edge18_Node000013_Node000018" class="edge">
<title>Node13&#45;&gt;Node18</title>
<g id="a_edge18_Node000013_Node000018"><a xlink:title=" ">
<path fill="none" stroke="#63b8ff" d="M1031.93,-111.59C1068.41,-102.08 1124.68,-87.4 1162.6,-77.51"/>
<polygon fill="#63b8ff" stroke="#63b8ff" points="1163,-81.02 1171.79,-75.11 1161.23,-74.25 1163,-81.02"/>
</a>
</g>
</g>
<!-- Node19 -->
<g id="Node000019" class="node">
<title>Node19</title>
<g id="a_Node000019"><a xlink:title=" ">
<polygon fill="#e0e0e0" stroke="#999999" points="1225.5,-20 1180.25,-20 1180.25,0 1225.5,0 1225.5,-20"/>
<text xml:space="preserve" text-anchor="middle" x="1202.88" y="-6.5" font-family="Helvetica,sans-Serif" font-size="10.00">cstdint</text>
</a>
</g>
</g>
<!-- Node18&#45;&gt;Node19 -->
<g id="edge19_Node000018_Node000019" class="edge">
<title>Node18&#45;&gt;Node19</title>
<g id="a_edge19_Node000018_Node000019"><a xlink:title=" ">
<path fill="none" stroke="#63b8ff" d="M1202.88,-55.59C1202.88,-49.01 1202.88,-39.96 1202.88,-31.73"/>
<polygon fill="#63b8ff" stroke="#63b8ff" points="1206.38,-31.81 1202.88,-21.81 1199.38,-31.81 1206.38,-31.81"/>
</a>
</g>
</g>
</g>
</svg>
