<?xml version="1.0" encoding="UTF-8" standalone="no"?>
<!DOCTYPE svg PUBLIC "-//W3C//DTD SVG 1.1//EN"
 "http://www.w3.org/Graphics/SVG/1.1/DTD/svg11.dtd">
<!-- Generated by graphviz version 14.1.5 (20260411.2331)
 -->
<!-- Title: serialmanager.h Pages: 1 -->
<svg width="234pt" height="140pt"
 viewBox="0.00 0.00 234.00 140.00" xmlns="http://www.w3.org/2000/svg" xmlns:xlink="http://www.w3.org/1999/xlink">
<g id="graph0" class="graph" transform="scale(1 1) rotate(0) translate(4 136)">
<title>serialmanager.h</title>
<!-- Node1 -->
<g id="Node000001" class="node">
<title>Node1</title>
<g id="a_Node000001"><a xlink:title="Modulo de comunicacion serie con protocolo UNER para el HMI Qt.">
<polygon fill="#999999" stroke="#666666" points="167.38,-132 82.38,-132 82.38,-112 167.38,-112 167.38,-132"/>
<text xml:space="preserve" text-anchor="middle" x="124.88" y="-118.5" font-family="Helvetica,sans-Serif" font-size="10.00">serialmanager.h</text>
</a>
</g>
</g>
<!-- Node2 -->
<g id="Node000002" class="node">
<title>Node2</title>
<g id="a_Node000002"><a xlink:href="mainwindow_8h.html" target="_top" xlink:title="Ventana principal del HMI para la cinta clasificadora.">
<polygon fill="white" stroke="#666666" points="111.62,-76 34.12,-76 34.12,-56 111.62,-56 111.62,-76"/>
<text xml:space="preserve" text-anchor="middle" x="72.88" y="-62.5" font-family="Helvetica,sans-Serif" font-size="10.00">mainwindow.h</text>
</a>
</g>
</g>
<!-- Node1&#45;&gt;Node2 -->
<g id="edge1_Node000001_Node000002" class="edge">
<title>Node1&#45;&gt;Node2</title>
<g id="a_edge1_Node000001_Node000002"><a xlink:title=" ">
<path fill="none" stroke="#63b8ff" d="M108.09,-103.57C99.36,-94.5 89.03,-83.78 81.83,-76.3"/>
<polygon fill="#63b8ff" stroke="#63b8ff" points="105.31,-105.73 114.77,-110.5 110.35,-100.87 105.31,-105.73"/>
</a>
</g>
</g>
<!-- Node5 -->
<g id="Node000005" class="node">
<title>Node5</title>
<g id="a_Node000005"><a xlink:href="serialmanager_8cpp.html" target="_top" xlink:title="Implementacion del modulo de comunicacion serie con protocolo UNER.">
<polygon fill="white" stroke="#666666" points="225.62,-76 130.12,-76 130.12,-56 225.62,-56 225.62,-76"/>
<text xml:space="preserve" text-anchor="middle" x="177.88" y="-62.5" font-family="Helvetica,sans-Serif" font-size="10.00">serialmanager.cpp</text>
</a>
</g>
</g>
<!-- Node1&#45;&gt;Node5 -->
<g id="edge4_Node000001_Node000005" class="edge">
<title>Node1&#45;&gt;Node5</title>
<g id="a_edge4_Node000001_Node000005"><a xlink:title=" ">
<path fill="none" stroke="#63b8ff" d="M141.99,-103.57C150.89,-94.5 161.41,-83.78 168.75,-76.3"/>
<polygon fill="#63b8ff" stroke="#63b8ff" points="139.67,-100.93 135.17,-110.51 144.67,-105.83 139.67,-100.93"/>
</a>
</g>
</g>
<!-- Node3 -->
<g id="Node000003" class="node">
<title>Node3</title>
<g id="a_Node000003"><a xlink:href="main_8cpp.html" target="_top" xlink:title="Punto de entrada de la aplicacion HMI para la cinta clasificadora.">
<polygon fill="white" stroke="#666666" points="55.75,-20 0,-20 0,0 55.75,0 55.75,-20"/>
<text xml:space="preserve" text-anchor="middle" x="27.88" y="-6.5" font-family="Helvetica,sans-Serif" font-size="10.00">main.cpp</text>
</a>
</g>
</g>
<!-- Node2&#45;&gt;Node3 -->
<g id="edge2_Node000002_Node000003" class="edge">
<title>Node2&#45;&gt;Node3</title>
<g id="a_edge2_Node000002_Node000003"><a xlink:title=" ">
<path fill="none" stroke="#63b8ff" d="M57.88,-47C50.42,-38.06 41.73,-27.62 35.62,-20.3"/>
<polygon fill="#63b8ff" stroke="#63b8ff" points="54.98,-48.99 64.07,-54.43 60.35,-44.51 54.98,-48.99"/>
</a>
</g>
</g>
<!-- Node4 -->
<g id="Node000004" class="node">
<title>Node4</title>
<g id="a_Node000004"><a xlink:href="mainwindow_8cpp.html" target="_top" xlink:title="Implementacion de la ventana principal del HMI.">
<polygon fill="white" stroke="#666666" points="161.88,-20 73.88,-20 73.88,0 161.88,0 161.88,-20"/>
<text xml:space="preserve" text-anchor="middle" x="117.88" y="-6.5" font-family="Helvetica,sans-Serif" font-size="10.00">mainwindow.cpp</text>
</a>
</g>
</g>
<!-- Node2&#45;&gt;Node4 -->
<g id="edge3_Node000002_Node000004" class="edge">
<title>Node2&#45;&gt;Node4</title>
<g id="a_edge3_Node000002_Node000004"><a xlink:title=" ">
<path fill="none" stroke="#63b8ff" d="M87.87,-47C95.33,-38.06 104.02,-27.62 110.13,-20.3"/>
<polygon fill="#63b8ff" stroke="#63b8ff" points="85.4,-44.51 81.68,-54.43 90.77,-48.99 85.4,-44.51"/>
</a>
</g>
</g>
</g>
</svg>
