<?xml version="1.0" encoding="UTF-8" standalone="no"?>
<!DOCTYPE svg PUBLIC "-//W3C//DTD SVG 1.1//EN"
 "http://www.w3.org/Graphics/SVG/1.1/DTD/svg11.dtd">
<!-- Generated by graphviz version 14.1.5 (20260411.2331)
 -->
<!-- Title: serialmanager.cpp Pages: 1 -->
<svg width="474pt" height="196pt"
 viewBox="0.00 0.00 474.00 196.00" xmlns="http://www.w3.org/2000/svg" xmlns:xlink="http://www.w3.org/1999/xlink">
<g id="graph0" class="graph" transform="scale(1 1) rotate(0) translate(4 192)">
<title>serialmanager.cpp</title>
<!-- Node1 -->
<g id="Node000001" class="node">
<title>Node1</title>
<g id="a_Node000001"><a xlink:title="Implementacion del modulo de comunicacion serie con protocolo UNER.">
<polygon fill="#999999" stroke="#666666" points="289.75,-188 194.25,-188 194.25,-168 289.75,-168 289.75,-188"/>
<text xml:space="preserve" text-anchor="middle" x="242" y="-174.5" font-family="Helvetica,sans-Serif" font-size="10.00">serialmanager.cpp</text>
</a>
</g>
</g>
<!-- Node2 -->
<g id="Node000002" class="node">
<title>Node2</title>
<g id="a_Node000002"><a xlink:href="serialmanager_8h.html" target="_top" xlink:title="Modulo de comunicacion serie con protocolo UNER para el HMI Qt.">
<polygon fill="white" stroke="#666666" points="284.5,-132 199.5,-132 199.5,-112 284.5,-112 284.5,-132"/>
<text xml:space="preserve" text-anchor="middle" x="242" y="-118.5" font-family="Helvetica,sans-Serif" font-size="10.00">serialmanager.h</text>
</a>
</g>
</g>
<!-- Node1&#45;&gt;Node2 -->
<g id="edge1_Node000001_Node000002" class="edge">
<title>Node1&#45;&gt;Node2</title>
<g id="a_edge1_Node000001_Node000002"><a xlink:title=" ">
<path fill="none" stroke="#63b8ff" d="M242,-167.59C242,-161.01 242,-151.96 242,-143.73"/>
<polygon fill="#63b8ff" stroke="#63b8ff" points="245.5,-143.81 242,-133.81 238.5,-143.81 245.5,-143.81"/>
</a>
</g>
</g>
<!-- Node3 -->
<g id="Node000003" class="node">
<title>Node3</title>
<g id="a_Node000003"><a xlink:title=" ">
<polygon fill="#e0e0e0" stroke="#999999" points="52,-76 0,-76 0,-56 52,-56 52,-76"/>
<text xml:space="preserve" text-anchor="middle" x="26" y="-62.5" font-family="Helvetica,sans-Serif" font-size="10.00">QObject</text>
</a>
</g>
</g>
<!-- Node2&#45;&gt;Node3 -->
<g id="edge2_Node000002_Node000003" class="edge">
<title>Node2&#45;&gt;Node3</title>
<g id="a_edge2_Node000002_Node000003"><a xlink:title=" ">
<path fill="none" stroke="#63b8ff" d="M203.49,-111.52C169.2,-103.06 117.35,-90.21 63.52,-76.62"/>
<polygon fill="#63b8ff" stroke="#63b8ff" points="64.39,-73.23 53.83,-74.18 62.67,-80.02 64.39,-73.23"/>
</a>
</g>
</g>
<!-- Node4 -->
<g id="Node000004" class="node">
<title>Node4</title>
<g id="a_Node000004"><a xlink:title=" ">
<polygon fill="#e0e0e0" stroke="#999999" points="136.12,-76 69.88,-76 69.88,-56 136.12,-56 136.12,-76"/>
<text xml:space="preserve" text-anchor="middle" x="103" y="-62.5" font-family="Helvetica,sans-Serif" font-size="10.00">QSerialPort</text>
</a>
</g>
</g>
<!-- Node2&#45;&gt;Node4 -->
<g id="edge3_Node000002_Node000004" class="edge">
<title>Node2&#45;&gt;Node4</title>
<g id="a_edge3_Node000002_Node000004"><a xlink:title=" ">
<path fill="none" stroke="#63b8ff" d="M217.79,-111.59C195.7,-103.01 162.8,-90.23 137.88,-80.55"/>
<polygon fill="#63b8ff" stroke="#63b8ff" points="139.4,-77.39 128.81,-77.03 136.87,-83.91 139.4,-77.39"/>
</a>
</g>
</g>
<!-- Node5 -->
<g id="Node000005" class="node">
<title>Node5</title>
<g id="a_Node000005"><a xlink:title=" ">
<polygon fill="#e0e0e0" stroke="#999999" points="237.38,-76 154.62,-76 154.62,-56 237.38,-56 237.38,-76"/>
<text xml:space="preserve" text-anchor="middle" x="196" y="-62.5" font-family="Helvetica,sans-Serif" font-size="10.00">QSerialPortInfo</text>
</a>
</g>
</g>
<!-- Node2&#45;&gt;Node5 -->
<g id="edge4_Node000002_Node000005" class="edge">
<title>Node2&#45;&gt;Node5</title>
<g id="a_edge4_Node000002_Node000005"><a xlink:title=" ">
<path fill="none" stroke="#63b8ff" d="M233.99,-111.59C227.72,-104.24 218.83,-93.8 211.22,-84.87"/>
<polygon fill="#63b8ff" stroke="#63b8ff" points="214.05,-82.79 204.9,-77.45 208.72,-87.33 214.05,-82.79"/>
</a>
</g>
</g>
<!-- Node6 -->
<g id="Node000006" class="node">
<title>Node6</title>
<g id="a_Node000006"><a xlink:title=" ">
<polygon fill="#e0e0e0" stroke="#999999" points="322.5,-76 255.5,-76 255.5,-56 322.5,-56 322.5,-76"/>
<text xml:space="preserve" text-anchor="middle" x="289" y="-62.5" font-family="Helvetica,sans-Serif" font-size="10.00">QByteArray</text>
</a>
</g>
</g>
<!-- Node2&#45;&gt;Node6 -->
<g id="edge5_Node000002_Node000006" class="edge">
<title>Node2&#45;&gt;Node6</title>
<g id="a_edge5_Node000002_Node000006"><a xlink:title=" ">
<path fill="none" stroke="#63b8ff" d="M250.19,-111.59C256.59,-104.24 265.68,-93.8 273.45,-84.87"/>
<polygon fill="#63b8ff" stroke="#63b8ff" points="275.99,-87.28 279.91,-77.44 270.71,-82.69 275.99,-87.28"/>
</a>
</g>
</g>
<!-- Node7 -->
<g id="Node000007" class="node">
<title>Node7</title>
<g id="a_Node000007"><a xlink:title=" ">
<polygon fill="#e0e0e0" stroke="#999999" points="389.12,-76 340.88,-76 340.88,-56 389.12,-56 389.12,-76"/>
<text xml:space="preserve" text-anchor="middle" x="365" y="-62.5" font-family="Helvetica,sans-Serif" font-size="10.00">QTimer</text>
</a>
</g>
</g>
<!-- Node2&#45;&gt;Node7 -->
<g id="edge6_Node000002_Node000007" class="edge">
<title>Node2&#45;&gt;Node7</title>
<g id="a_edge6_Node000002_Node000007"><a xlink:title=" ">
<path fill="none" stroke="#63b8ff" d="M263.42,-111.59C282.62,-103.17 311.04,-90.69 332.94,-81.07"/>
<polygon fill="#63b8ff" stroke="#63b8ff" points="334.27,-84.31 342.02,-77.09 331.46,-77.9 334.27,-84.31"/>
</a>
</g>
</g>
<!-- Node8 -->
<g id="Node000008" class="node">
<title>Node8</title>
<g id="a_Node000008"><a xlink:href="protocol_8h.html" target="_top" xlink:title="Definiciones del protocolo de comunicacion UNER entre MCU y HMI Qt.">
<polygon fill="white" stroke="#666666" points="466.38,-76 407.62,-76 407.62,-56 466.38,-56 466.38,-76"/>
<text xml:space="preserve" text-anchor="middle" x="437" y="-62.5" font-family="Helvetica,sans-Serif" font-size="10.00">protocol.h</text>
</a>
</g>
</g>
<!-- Node2&#45;&gt;Node8 -->
<g id="edge7_Node000002_Node000008" class="edge">
<title>Node2&#45;&gt;Node8</title>
<g id="a_edge7_Node000002_Node000008"><a xlink:title=" ">
<path fill="none" stroke="#63b8ff" d="M275.97,-111.59C309.44,-102.32 360.62,-88.15 396.27,-78.28"/>
<polygon fill="#63b8ff" stroke="#63b8ff" points="397.09,-81.68 405.79,-75.64 395.22,-74.94 397.09,-81.68"/>
</a>
</g>
</g>
<!-- Node9 -->
<g id="Node000009" class="node">
<title>Node9</title>
<g id="a_Node000009"><a xlink:title=" ">
<polygon fill="#e0e0e0" stroke="#999999" points="459.62,-20 414.38,-20 414.38,0 459.62,0 459.62,-20"/>
<text xml:space="preserve" text-anchor="middle" x="437" y="-6.5" font-family="Helvetica,sans-Serif" font-size="10.00">cstdint</text>
</a>
</g>
</g>
<!-- Node8&#45;&gt;Node9 -->
<g id="edge8_Node000008_Node000009" class="edge">
<title>Node8&#45;&gt;Node9</title>
<g id="a_edge8_Node000008_Node000009"><a xlink:title=" ">
<path fill="none" stroke="#63b8ff" d="M437,-55.59C437,-49.01 437,-39.96 437,-31.73"/>
<polygon fill="#63b8ff" stroke="#63b8ff" points="440.5,-31.81 437,-21.81 433.5,-31.81 440.5,-31.81"/>
</a>
</g>
</g>
</g>
</svg>
